<svg id="svg-main" width="80%" height="60%" xmlns="http://www.w3.org/2000/svg" version="1.1" xmlns:xlink="http://www.w3.org/1999/xlink" style="padding-top:10px ;border:0px solid; background:rgba(255,255,255,1);" viewBox="-60,-44.14213562011719,165.1421356201172,135.1421356201172" preserveAspectRatio="xMinYMin meet"><path id="path1" d="M 0 0L 9.18485099360515e-16 15 L 1.83697019872103e-15 30 L 2.7554552980815448e-15 45 L 3.67394039744206e-15 60 L 4.592425496802575e-15 75 L 5.51091059616309e-15 90 L 15.000000000000005 90 L 30.000000000000007 90 L 30.000000000000007 75 L 15.000000000000007 75 L 7.105427357601002e-15 75 L 15.000000000000007 75 L 30.000000000000007 75 L 45.00000000000001 75 L 60.00000000000001 75 L 75 75 L 90 75 L 90 60 L 90 45 L 75 45 L 75 60 L 75 75 L 75 60 L 75 45 L 75 30 L 75 15 L 75 0 L 75 -15 L 60 -15.000000000000002 L 45 -15.000000000000004 L 45 -3.552713678800501e-15 L 60 1.2122671864155904e-16 L 75 3.795167116083619e-15 L 60 1.958196917362589e-15 L 45 1.2122671864155904e-16 L 30 -1.715743480079471e-15 L 15 -3.552713678800501e-15 L 0 -5.389683877521531e-15 L -15 -7.226654076242562e-15 L -15.000000000000004 14.999999999999993 L -15.000000000000007 29.999999999999993 L -7.105427357601002e-15 29.999999999999996 L -2.5130018607984275e-15 14.999999999999996 L 2.079423636004147e-15 -3.552713678800501e-15 L 15.000000000000002 1.2122671864155904e-16 L 14.999999999999998 15 L -1.7763568394002505e-15 14.999999999999998 L -15.000000000000002 14.999999999999996 L -30 14.999999999999995 L -30 -5.329070518200751e-15 L -15 -5.329070518200751e-15 L -14.999999999999998 -15.000000000000005 L -30 -15.000000000000007 L -45 -15.000000000000009 L -60 -15.00000000000001 L -60 -30.00000000000001 L -45 -30.00000000000001 L -30 -30.00000000000001 L -15 -30.00000000000001 L -14.999999999999998 -15.00000000000001 L -30 -15.000000000000009 L -30 -8.881784197001252e-15 L -15 -8.881784197001252e-15 L 0 -8.881784197001252e-15 L 15 -8.881784197001252e-15 L 15.000000000000002 14.999999999999991 L 1.7763568394002505e-15 14.999999999999993 L -14.999999999999998 14.999999999999995 L -30 14.999999999999996 L -30.000000000000004 -3.552713678800501e-15 L -15.000000000000004 -7.226654076242562e-15 L -15.000000000000007 -15.000000000000007 L -30.000000000000007 -15.000000000000005 L -45.00000000000001 -15.000000000000004 L -60.00000000000001 -15.000000000000002 L -60.00000000000001 -30 L -45.00000000000001 -30.000000000000004 L -30.000000000000007 -30.000000000000007 L -15.000000000000007 -30.00000000000001 L -15.000000000000002 -15.00000000000001 L -30 -15.000000000000005 L -29.999999999999996 -5.329070518200751e-15 L -14.999999999999996 -9.003010915642812e-15 L 3.552713678800501e-15 -1.2676951313084873e-14 " stroke="black" fill="none" stroke-linecap="round" stroke-linejoin="round" transform="scale(1,1)"></path><g id="gMain"><g id="g0"><polygon id="polygon0" points="0,0 5.303300858899105,-5.3033008588991075 5.303300858899106,9.696699141100893 9.18485099360515e-16,15 " fill="#1f1b3d" stroke="#1f1b3d" stroke-linecap="round" stroke-linejoin="round" transform="scale(1,1)"></polygon><polygon id="polygon1" points="9.18485099360515e-16,15 5.303300858899106,9.696699141100893 5.303300858899107,24.696699141100893 1.83697019872103e-15,30 " fill="#1f1b3d" stroke="#1f1b3d" stroke-linecap="round" stroke-linejoin="round" transform="scale(1,1)"></polygon><polygon id="polygon2" points="1.83697019872103e-15,30 5.303300858899107,24.696699141100893 5.3033008588991075,39.69669914110089 2.7554552980815448e-15,45 " fill="#1f1b3d" stroke="#1f1b3d" stroke-linecap="round" stroke-linejoin="round" transform="scale(1,1)"></polygon><polygon id="polygon3" points="2.7554552980815448e-15,45 5.3033008588991075,39.69669914110089 5.303300858899108,54.69669914110089 3.67394039744206e-15,60 " fill="#1f1b3d" stroke="#1f1b3d" stroke-linecap="round" stroke-linejoin="round" transform="scale(1,1)"></polygon><polygon id="polygon4" points="3.67394039744206e-15,60 5.303300858899108,54.69669914110089 5.303300858899109,69.6966991411009 4.592425496802575e-15,75 " fill="#1f1b3d" stroke="#1f1b3d" stroke-linecap="round" stroke-linejoin="round" transform="scale(1,1)"></polygon><polygon id="polygon5" points="4.592425496802575e-15,75 5.303300858899109,69.6966991411009 5.30330085889911,84.6966991411009 5.51091059616309e-15,90 " fill="#1f1b3d" stroke="#1f1b3d" stroke-linecap="round" stroke-linejoin="round" transform="scale(1,1)"></polygon><polygon id="polygon6" points="5.51091059616309e-15,90 5.30330085889911,84.6966991411009 20.30330085889911,84.6966991411009 15.000000000000005,90 " fill="#1f1b3d" stroke="#1f1b3d" stroke-linecap="round" stroke-linejoin="round" transform="scale(1,1)"></polygon><polygon id="polygon8" points="30.000000000000007,90 35.303300858899114,84.6966991411009 35.303300858899114,69.6966991411009 30.000000000000007,75 " fill="#1f1b3d" stroke="#1f1b3d" stroke-linecap="round" stroke-linejoin="round" transform="scale(1,1)"></polygon><polygon id="polygon9" points="30.000000000000007,75 35.303300858899114,69.6966991411009 20.303300858899114,69.6966991411009 15.000000000000007,75 " fill="#1f1b3d" stroke="#1f1b3d" stroke-linecap="round" stroke-linejoin="round" transform="scale(1,1)"></polygon><polygon id="polygon10" points="15.000000000000007,75 20.303300858899114,69.6966991411009 5.303300858899112,69.6966991411009 7.105427357601002e-15,75 " fill="#1f1b3d" stroke="#1f1b3d" stroke-linecap="round" stroke-linejoin="round" transform="scale(1,1)"></polygon><polygon id="polygon11" points="7.105427357601002e-15,75 5.303300858899112,69.6966991411009 20.303300858899114,69.6966991411009 15.000000000000007,75 " fill="#1f1b3d" stroke="#1f1b3d" stroke-linecap="round" stroke-linejoin="round" transform="scale(1,1)"></polygon><polygon id="polygon12" points="15.000000000000007,75 20.303300858899114,69.6966991411009 35.303300858899114,69.6966991411009 30.000000000000007,75 " fill="#1f1b3d" stroke="#1f1b3d" stroke-linecap="round" stroke-linejoin="round" transform="scale(1,1)"></polygon><polygon id="polygon13" points="30.000000000000007,75 35.303300858899114,69.6966991411009 50.303300858899114,69.6966991411009 45.00000000000001,75 " fill="#1f1b3d" stroke="#1f1b3d" stroke-linecap="round" stroke-linejoin="round" transform="scale(1,1)"></polygon><polygon id="polygon14" points="45.00000000000001,75 50.303300858899114,69.6966991411009 65.3033008588991,69.6966991411009 60.00000000000001,75 " fill="#1f1b3d" stroke="#1f1b3d" stroke-linecap="round" stroke-linejoin="round" transform="scale(1,1)"></polygon><polygon id="polygon15" points="60.00000000000001,75 65.3033008588991,69.6966991411009 80.3033008588991,69.6966991411009 75,75 " fill="#1f1b3d" stroke="#1f1b3d" stroke-linecap="round" stroke-linejoin="round" transform="scale(1,1)"></polygon><polygon id="polygon17" points="90,75 95.3033008588991,69.6966991411009 95.3033008588991,54.69669914110089 90,60 " fill="#1f1b3d" stroke="#1f1b3d" stroke-linecap="round" stroke-linejoin="round" transform="scale(1,1)"></polygon><polygon id="polygon18" points="90,60 95.3033008588991,54.69669914110089 95.3033008588991,39.69669914110089 90,45 " fill="#1f1b3d" stroke="#1f1b3d" stroke-linecap="round" stroke-linejoin="round" transform="scale(1,1)"></polygon><polygon id="polygon19" points="90,45 95.3033008588991,39.69669914110089 80.3033008588991,39.69669914110089 75,45 " fill="#1f1b3d" stroke="#1f1b3d" stroke-linecap="round" stroke-linejoin="round" transform="scale(1,1)"></polygon><polygon id="polygon20" points="75,45 80.3033008588991,39.69669914110089 80.3033008588991,54.69669914110089 75,60 " fill="#1f1b3d" stroke="#1f1b3d" stroke-linecap="round" stroke-linejoin="round" transform="scale(1,1)"></polygon><polygon id="polygon21" points="75,60 80.3033008588991,54.69669914110089 80.3033008588991,69.6966991411009 75,75 " fill="#1f1b3d" stroke="#1f1b3d" stroke-linecap="round" stroke-linejoin="round" transform="scale(1,1)"></polygon><polygon id="polygon22" points="75,75 80.3033008588991,69.6966991411009 80.3033008588991,54.69669914110089 75,60 " fill="#1f1b3d" stroke="#1f1b3d" stroke-linecap="round" stroke-linejoin="round" transform="scale(1,1)"></polygon><polygon id="polygon23" points="75,60 80.3033008588991,54.69669914110089 80.3033008588991,39.69669914110089 75,45 " fill="#1f1b3d" stroke="#1f1b3d" stroke-linecap="round" stroke-linejoin="round" transform="scale(1,1)"></polygon><polygon id="polygon24" points="75,45 80.3033008588991,39.69669914110089 80.3033008588991,24.696699141100893 75,30 " fill="#1f1b3d" stroke="#1f1b3d" stroke-linecap="round" stroke-linejoin="round" transform="scale(1,1)"></polygon><polygon id="polygon25" points="75,30 80.3033008588991,24.696699141100893 80.3033008588991,9.696699141100893 75,15 " fill="#1f1b3d" stroke="#1f1b3d" stroke-linecap="round" stroke-linejoin="round" transform="scale(1,1)"></polygon><polygon id="polygon26" points="75,15 80.3033008588991,9.696699141100893 80.3033008588991,-5.3033008588991075 75,0 " fill="#1f1b3d" stroke="#1f1b3d" stroke-linecap="round" stroke-linejoin="round" transform="scale(1,1)"></polygon><polygon id="polygon27" points="75,0 80.3033008588991,-5.3033008588991075 80.3033008588991,-20.303300858899107 75,-15 " fill="#1f1b3d" stroke="#1f1b3d" stroke-linecap="round" stroke-linejoin="round" transform="scale(1,1)"></polygon><polygon id="polygon28" points="75,-15 80.3033008588991,-20.303300858899107 65.3033008588991,-20.30330085889911 60,-15.000000000000002 " fill="#1f1b3d" stroke="#1f1b3d" stroke-linecap="round" stroke-linejoin="round" transform="scale(1,1)"></polygon><polygon id="polygon29" points="60,-15.000000000000002 65.3033008588991,-20.30330085889911 50.30330085889911,-20.30330085889911 45,-15.000000000000004 " fill="#1f1b3d" stroke="#1f1b3d" stroke-linecap="round" stroke-linejoin="round" transform="scale(1,1)"></polygon><polygon id="polygon30" points="45,-15.000000000000004 50.30330085889911,-20.30330085889911 50.30330085889911,-5.303300858899111 45,-3.552713678800501e-15 " fill="#1f1b3d" stroke="#1f1b3d" stroke-linecap="round" stroke-linejoin="round" transform="scale(1,1)"></polygon><polygon id="polygon31" points="45,-3.552713678800501e-15 50.30330085889911,-5.303300858899111 65.3033008588991,-5.3033008588991075 60,1.2122671864155904e-16 " fill="#1f1b3d" stroke="#1f1b3d" stroke-linecap="round" stroke-linejoin="round" transform="scale(1,1)"></polygon><polygon id="polygon32" points="60,1.2122671864155904e-16 65.3033008588991,-5.3033008588991075 80.3033008588991,-5.303300858899104 75,3.795167116083619e-15 " fill="#1f1b3d" stroke="#1f1b3d" stroke-linecap="round" stroke-linejoin="round" transform="scale(1,1)"></polygon><polygon id="polygon33" points="75,3.795167116083619e-15 80.3033008588991,-5.303300858899104 65.3033008588991,-5.303300858899106 60,1.958196917362589e-15 " fill="#1f1b3d" stroke="#1f1b3d" stroke-linecap="round" stroke-linejoin="round" transform="scale(1,1)"></polygon><polygon id="polygon34" points="60,1.958196917362589e-15 65.3033008588991,-5.303300858899106 50.30330085889911,-5.3033008588991075 45,1.2122671864155904e-16 " fill="#1f1b3d" stroke="#1f1b3d" stroke-linecap="round" stroke-linejoin="round" transform="scale(1,1)"></polygon><polygon id="polygon35" points="45,1.2122671864155904e-16 50.30330085889911,-5.3033008588991075 35.30330085889911,-5.303300858899109 30,-1.715743480079471e-15 " fill="#1f1b3d" stroke="#1f1b3d" stroke-linecap="round" stroke-linejoin="round" transform="scale(1,1)"></polygon><polygon id="polygon36" points="30,-1.715743480079471e-15 35.30330085889911,-5.303300858899109 20.303300858899107,-5.303300858899111 15,-3.552713678800501e-15 " fill="#1f1b3d" stroke="#1f1b3d" stroke-linecap="round" stroke-linejoin="round" transform="scale(1,1)"></polygon><polygon id="polygon37" points="15,-3.552713678800501e-15 20.303300858899107,-5.303300858899111 5.303300858899105,-5.303300858899113 0,-5.389683877521531e-15 " fill="#1f1b3d" stroke="#1f1b3d" stroke-linecap="round" stroke-linejoin="round" transform="scale(1,1)"></polygon><polygon id="polygon38" points="0,-5.389683877521531e-15 5.303300858899105,-5.303300858899113 -9.696699141100895,-5.303300858899115 -15,-7.226654076242562e-15 " fill="#1f1b3d" stroke="#1f1b3d" stroke-linecap="round" stroke-linejoin="round" transform="scale(1,1)"></polygon><polygon id="polygon39" points="-15,-7.226654076242562e-15 -9.696699141100895,-5.303300858899115 -9.696699141100899,9.696699141100886 -15.000000000000004,14.999999999999993 " fill="#1f1b3d" stroke="#1f1b3d" stroke-linecap="round" stroke-linejoin="round" transform="scale(1,1)"></polygon><polygon id="polygon40" points="-15.000000000000004,14.999999999999993 -9.696699141100899,9.696699141100886 -9.696699141100902,24.696699141100886 -15.000000000000007,29.999999999999993 " fill="#1f1b3d" stroke="#1f1b3d" stroke-linecap="round" stroke-linejoin="round" transform="scale(1,1)"></polygon><polygon id="polygon42" points="-7.105427357601002e-15,29.999999999999996 5.303300858899098,24.69669914110089 5.303300858899102,9.69669914110089 -2.5130018607984275e-15,14.999999999999996 " fill="#1f1b3d" stroke="#1f1b3d" stroke-linecap="round" stroke-linejoin="round" transform="scale(1,1)"></polygon><polygon id="polygon44" points="2.079423636004147e-15,-3.552713678800501e-15 5.303300858899107,-5.303300858899111 20.303300858899107,-5.3033008588991075 15.000000000000002,1.2122671864155904e-16 " fill="#1f1b3d" stroke="#1f1b3d" stroke-linecap="round" stroke-linejoin="round" transform="scale(1,1)"></polygon><polygon id="polygon45" points="15.000000000000002,1.2122671864155904e-16 20.303300858899107,-5.3033008588991075 20.303300858899103,9.696699141100893 14.999999999999998,15 " fill="#1f1b3d" stroke="#1f1b3d" stroke-linecap="round" stroke-linejoin="round" transform="scale(1,1)"></polygon><polygon id="polygon46" points="14.999999999999998,15 20.303300858899103,9.696699141100893 5.303300858899103,9.69669914110089 -1.7763568394002505e-15,14.999999999999998 " fill="#1f1b3d" stroke="#1f1b3d" stroke-linecap="round" stroke-linejoin="round" transform="scale(1,1)"></polygon><polygon id="polygon47" points="-1.7763568394002505e-15,14.999999999999998 5.303300858899103,9.69669914110089 -9.696699141100897,9.69669914110089 -15.000000000000002,14.999999999999996 " fill="#1f1b3d" stroke="#1f1b3d" stroke-linecap="round" stroke-linejoin="round" transform="scale(1,1)"></polygon><polygon id="polygon48" points="-15.000000000000002,14.999999999999996 -9.696699141100897,9.69669914110089 -24.696699141100893,9.696699141100886 -30,14.999999999999995 " fill="#1f1b3d" stroke="#1f1b3d" stroke-linecap="round" stroke-linejoin="round" transform="scale(1,1)"></polygon><polygon id="polygon51" points="-15,-5.329070518200751e-15 -9.696699141100895,-5.303300858899113 -9.696699141100893,-20.303300858899114 -14.999999999999998,-15.000000000000005 " fill="#1f1b3d" stroke="#1f1b3d" stroke-linecap="round" stroke-linejoin="round" transform="scale(1,1)"></polygon><polygon id="polygon52" points="-14.999999999999998,-15.000000000000005 -9.696699141100893,-20.303300858899114 -24.696699141100893,-20.303300858899114 -30,-15.000000000000007 " fill="#1f1b3d" stroke="#1f1b3d" stroke-linecap="round" stroke-linejoin="round" transform="scale(1,1)"></polygon><polygon id="polygon53" points="-30,-15.000000000000007 -24.696699141100893,-20.303300858899114 -39.69669914110089,-20.303300858899117 -45,-15.000000000000009 " fill="#1f1b3d" stroke="#1f1b3d" stroke-linecap="round" stroke-linejoin="round" transform="scale(1,1)"></polygon><polygon id="polygon54" points="-45,-15.000000000000009 -39.69669914110089,-20.303300858899117 -54.69669914110089,-20.303300858899117 -60,-15.00000000000001 " fill="#1f1b3d" stroke="#1f1b3d" stroke-linecap="round" stroke-linejoin="round" transform="scale(1,1)"></polygon><polygon id="polygon56" points="-60,-30.00000000000001 -54.69669914110089,-35.30330085889912 -39.69669914110089,-35.30330085889912 -45,-30.00000000000001 " fill="#1f1b3d" stroke="#1f1b3d" stroke-linecap="round" stroke-linejoin="round" transform="scale(1,1)"></polygon><polygon id="polygon57" points="-45,-30.00000000000001 -39.69669914110089,-35.30330085889912 -24.696699141100893,-35.30330085889912 -30,-30.00000000000001 " fill="#1f1b3d" stroke="#1f1b3d" stroke-linecap="round" stroke-linejoin="round" transform="scale(1,1)"></polygon><polygon id="polygon58" points="-30,-30.00000000000001 -24.696699141100893,-35.30330085889912 -9.696699141100895,-35.30330085889912 -15,-30.00000000000001 " fill="#1f1b3d" stroke="#1f1b3d" stroke-linecap="round" stroke-linejoin="round" transform="scale(1,1)"></polygon><polygon id="polygon59" points="-15,-30.00000000000001 -9.696699141100895,-35.30330085889912 -9.696699141100893,-20.303300858899117 -14.999999999999998,-15.00000000000001 " fill="#1f1b3d" stroke="#1f1b3d" stroke-linecap="round" stroke-linejoin="round" transform="scale(1,1)"></polygon><polygon id="polygon60" points="-14.999999999999998,-15.00000000000001 -9.696699141100893,-20.303300858899117 -24.696699141100893,-20.303300858899117 -30,-15.000000000000009 " fill="#1f1b3d" stroke="#1f1b3d" stroke-linecap="round" stroke-linejoin="round" transform="scale(1,1)"></polygon><polygon id="polygon61" points="-30,-15.000000000000009 -24.696699141100893,-20.303300858899117 -24.696699141100893,-5.303300858899116 -30,-8.881784197001252e-15 " fill="#1f1b3d" stroke="#1f1b3d" stroke-linecap="round" stroke-linejoin="round" transform="scale(1,1)"></polygon><polygon id="polygon62" points="-30,-8.881784197001252e-15 -24.696699141100893,-5.303300858899116 -9.696699141100895,-5.303300858899116 -15,-8.881784197001252e-15 " fill="#1f1b3d" stroke="#1f1b3d" stroke-linecap="round" stroke-linejoin="round" transform="scale(1,1)"></polygon><polygon id="polygon63" points="-15,-8.881784197001252e-15 -9.696699141100895,-5.303300858899116 5.303300858899105,-5.303300858899116 0,-8.881784197001252e-15 " fill="#1f1b3d" stroke="#1f1b3d" stroke-linecap="round" stroke-linejoin="round" transform="scale(1,1)"></polygon><polygon id="polygon64" points="0,-8.881784197001252e-15 5.303300858899105,-5.303300858899116 20.303300858899107,-5.303300858899116 15,-8.881784197001252e-15 " fill="#1f1b3d" stroke="#1f1b3d" stroke-linecap="round" stroke-linejoin="round" transform="scale(1,1)"></polygon><polygon id="polygon65" points="15,-8.881784197001252e-15 20.303300858899107,-5.303300858899116 20.303300858899107,9.696699141100883 15.000000000000002,14.999999999999991 " fill="#1f1b3d" stroke="#1f1b3d" stroke-linecap="round" stroke-linejoin="round" transform="scale(1,1)"></polygon><polygon id="polygon66" points="15.000000000000002,14.999999999999991 20.303300858899107,9.696699141100883 5.303300858899107,9.696699141100886 1.7763568394002505e-15,14.999999999999993 " fill="#1f1b3d" stroke="#1f1b3d" stroke-linecap="round" stroke-linejoin="round" transform="scale(1,1)"></polygon><polygon id="polygon67" points="1.7763568394002505e-15,14.999999999999993 5.303300858899107,9.696699141100886 -9.696699141100893,9.696699141100886 -14.999999999999998,14.999999999999995 " fill="#1f1b3d" stroke="#1f1b3d" stroke-linecap="round" stroke-linejoin="round" transform="scale(1,1)"></polygon><polygon id="polygon68" points="-14.999999999999998,14.999999999999995 -9.696699141100893,9.696699141100886 -24.696699141100893,9.69669914110089 -30,14.999999999999996 " fill="#1f1b3d" stroke="#1f1b3d" stroke-linecap="round" stroke-linejoin="round" transform="scale(1,1)"></polygon><polygon id="polygon71" points="-15.000000000000004,-7.226654076242562e-15 -9.696699141100899,-5.303300858899115 -9.696699141100902,-20.303300858899114 -15.000000000000007,-15.000000000000007 " fill="#1f1b3d" stroke="#1f1b3d" stroke-linecap="round" stroke-linejoin="round" transform="scale(1,1)"></polygon><polygon id="polygon72" points="-15.000000000000007,-15.000000000000007 -9.696699141100902,-20.303300858899114 -24.6966991411009,-20.303300858899114 -30.000000000000007,-15.000000000000005 " fill="#1f1b3d" stroke="#1f1b3d" stroke-linecap="round" stroke-linejoin="round" transform="scale(1,1)"></polygon><polygon id="polygon73" points="-30.000000000000007,-15.000000000000005 -24.6966991411009,-20.303300858899114 -39.6966991411009,-20.30330085889911 -45.00000000000001,-15.000000000000004 " fill="#1f1b3d" stroke="#1f1b3d" stroke-linecap="round" stroke-linejoin="round" transform="scale(1,1)"></polygon><polygon id="polygon74" points="-45.00000000000001,-15.000000000000004 -39.6966991411009,-20.30330085889911 -54.6966991411009,-20.30330085889911 -60.00000000000001,-15.000000000000002 " fill="#1f1b3d" stroke="#1f1b3d" stroke-linecap="round" stroke-linejoin="round" transform="scale(1,1)"></polygon><polygon id="polygon76" points="-60.00000000000001,-30 -54.6966991411009,-35.30330085889911 -39.6966991411009,-35.303300858899114 -45.00000000000001,-30.000000000000004 " fill="#1f1b3d" stroke="#1f1b3d" stroke-linecap="round" stroke-linejoin="round" transform="scale(1,1)"></polygon><polygon id="polygon77" points="-45.00000000000001,-30.000000000000004 -39.6966991411009,-35.303300858899114 -24.6966991411009,-35.303300858899114 -30.000000000000007,-30.000000000000007 " fill="#1f1b3d" stroke="#1f1b3d" stroke-linecap="round" stroke-linejoin="round" transform="scale(1,1)"></polygon><polygon id="polygon78" points="-30.000000000000007,-30.000000000000007 -24.6966991411009,-35.303300858899114 -9.696699141100902,-35.30330085889912 -15.000000000000007,-30.00000000000001 " fill="#1f1b3d" stroke="#1f1b3d" stroke-linecap="round" stroke-linejoin="round" transform="scale(1,1)"></polygon><polygon id="polygon79" points="-15.000000000000007,-30.00000000000001 -9.696699141100902,-35.30330085889912 -9.696699141100897,-20.303300858899117 -15.000000000000002,-15.00000000000001 " fill="#1f1b3d" stroke="#1f1b3d" stroke-linecap="round" stroke-linejoin="round" transform="scale(1,1)"></polygon><polygon id="polygon80" points="-15.000000000000002,-15.00000000000001 -9.696699141100897,-20.303300858899117 -24.696699141100893,-20.303300858899114 -30,-15.000000000000005 " fill="#1f1b3d" stroke="#1f1b3d" stroke-linecap="round" stroke-linejoin="round" transform="scale(1,1)"></polygon><polygon id="polygon81" points="-30,-15.000000000000005 -24.696699141100893,-20.303300858899114 -24.696699141100893,-5.303300858899113 -29.999999999999996,-5.329070518200751e-15 " fill="#1f1b3d" stroke="#1f1b3d" stroke-linecap="round" stroke-linejoin="round" transform="scale(1,1)"></polygon><polygon id="polygon82" points="-29.999999999999996,-5.329070518200751e-15 -24.696699141100893,-5.303300858899113 -9.696699141100892,-5.303300858899116 -14.999999999999996,-9.003010915642812e-15 " fill="#1f1b3d" stroke="#1f1b3d" stroke-linecap="round" stroke-linejoin="round" transform="scale(1,1)"></polygon><polygon id="polygon83" points="-14.999999999999996,-9.003010915642812e-15 -9.696699141100892,-5.303300858899116 5.303300858899108,-5.30330085889912 3.552713678800501e-15,-1.2676951313084873e-14 " fill="#1f1b3d" stroke="#1f1b3d" stroke-linecap="round" stroke-linejoin="round" transform="scale(1,1)"></polygon><polygon id="polygon75" points="-60.00000000000001,-15.000000000000002 -54.6966991411009,-20.30330085889911 -54.6966991411009,-35.30330085889911 -60.00000000000001,-30 " fill="#1f1b3d" stroke="#1f1b3d" stroke-linecap="round" stroke-linejoin="round" transform="scale(1,1)"></polygon><polygon id="polygon70" points="-30.000000000000004,-3.552713678800501e-15 -24.6966991411009,-5.303300858899111 -9.696699141100899,-5.303300858899115 -15.000000000000004,-7.226654076242562e-15 " fill="#1f1b3d" stroke="#1f1b3d" stroke-linecap="round" stroke-linejoin="round" transform="scale(1,1)"></polygon><polygon id="polygon69" points="-30,14.999999999999996 -24.696699141100893,9.69669914110089 -24.6966991411009,-5.303300858899111 -30.000000000000004,-3.552713678800501e-15 " fill="#1f1b3d" stroke="#1f1b3d" stroke-linecap="round" stroke-linejoin="round" transform="scale(1,1)"></polygon><polygon id="polygon55" points="-60,-15.00000000000001 -54.69669914110089,-20.303300858899117 -54.69669914110089,-35.30330085889912 -60,-30.00000000000001 " fill="#1f1b3d" stroke="#1f1b3d" stroke-linecap="round" stroke-linejoin="round" transform="scale(1,1)"></polygon><polygon id="polygon50" points="-30,-5.329070518200751e-15 -24.696699141100893,-5.303300858899113 -9.696699141100895,-5.303300858899113 -15,-5.329070518200751e-15 " fill="#1f1b3d" stroke="#1f1b3d" stroke-linecap="round" stroke-linejoin="round" transform="scale(1,1)"></polygon><polygon id="polygon49" points="-30,14.999999999999995 -24.696699141100893,9.696699141100886 -24.696699141100893,-5.303300858899113 -30,-5.329070518200751e-15 " fill="#1f1b3d" stroke="#1f1b3d" stroke-linecap="round" stroke-linejoin="round" transform="scale(1,1)"></polygon><polygon id="polygon43" points="-2.5130018607984275e-15,14.999999999999996 5.303300858899102,9.69669914110089 5.303300858899107,-5.303300858899111 2.079423636004147e-15,-3.552713678800501e-15 " fill="#1f1b3d" stroke="#1f1b3d" stroke-linecap="round" stroke-linejoin="round" transform="scale(1,1)"></polygon><polygon id="polygon41" points="-15.000000000000007,29.999999999999993 -9.696699141100902,24.696699141100886 5.303300858899098,24.69669914110089 -7.105427357601002e-15,29.999999999999996 " fill="#1f1b3d" stroke="#1f1b3d" stroke-linecap="round" stroke-linejoin="round" transform="scale(1,1)"></polygon><polygon id="polygon16" points="75,75 80.3033008588991,69.6966991411009 95.3033008588991,69.6966991411009 90,75 " fill="#1f1b3d" stroke="#1f1b3d" stroke-linecap="round" stroke-linejoin="round" transform="scale(1,1)"></polygon><polygon id="polygon7" points="15.000000000000005,90 20.30330085889911,84.6966991411009 35.303300858899114,84.6966991411009 30.000000000000007,90 " fill="#1f1b3d" stroke="#1f1b3d" stroke-linecap="round" stroke-linejoin="round" transform="scale(1,1)"></polygon></g><g id="g1"><polygon id="polygon84" points="5.303300858899105,-5.3033008588991075 10.60660171779821,-10.606601717798215 10.60660171779821,4.393398282201786 5.303300858899106,9.696699141100893 " fill="#2c2d86" stroke="#2c2d86" stroke-linecap="round" stroke-linejoin="round" transform="scale(1,1)"></polygon><polygon id="polygon85" points="5.303300858899106,9.696699141100893 10.60660171779821,4.393398282201786 10.606601717798211,19.393398282201787 5.303300858899107,24.696699141100893 " fill="#2c2d86" stroke="#2c2d86" stroke-linecap="round" stroke-linejoin="round" transform="scale(1,1)"></polygon><polygon id="polygon86" points="5.303300858899107,24.696699141100893 10.606601717798211,19.393398282201787 10.606601717798213,34.39339828220179 5.3033008588991075,39.69669914110089 " fill="#2c2d86" stroke="#2c2d86" stroke-linecap="round" stroke-linejoin="round" transform="scale(1,1)"></polygon><polygon id="polygon87" points="5.3033008588991075,39.69669914110089 10.606601717798213,34.39339828220179 10.606601717798213,49.39339828220179 5.303300858899108,54.69669914110089 " fill="#2c2d86" stroke="#2c2d86" stroke-linecap="round" stroke-linejoin="round" transform="scale(1,1)"></polygon><polygon id="polygon88" points="5.303300858899108,54.69669914110089 10.606601717798213,49.39339828220179 10.606601717798213,64.39339828220179 5.303300858899109,69.6966991411009 " fill="#2c2d86" stroke="#2c2d86" stroke-linecap="round" stroke-linejoin="round" transform="scale(1,1)"></polygon><polygon id="polygon89" points="5.303300858899109,69.6966991411009 10.606601717798213,64.39339828220179 10.606601717798215,79.39339828220179 5.30330085889911,84.6966991411009 " fill="#2c2d86" stroke="#2c2d86" stroke-linecap="round" stroke-linejoin="round" transform="scale(1,1)"></polygon><polygon id="polygon90" points="5.30330085889911,84.6966991411009 10.606601717798215,79.39339828220179 25.606601717798213,79.39339828220179 20.30330085889911,84.6966991411009 " fill="#2c2d86" stroke="#2c2d86" stroke-linecap="round" stroke-linejoin="round" transform="scale(1,1)"></polygon><polygon id="polygon92" points="35.303300858899114,84.6966991411009 40.60660171779822,79.39339828220179 40.60660171779822,64.39339828220179 35.303300858899114,69.6966991411009 " fill="#2c2d86" stroke="#2c2d86" stroke-linecap="round" stroke-linejoin="round" transform="scale(1,1)"></polygon><polygon id="polygon93" points="35.303300858899114,69.6966991411009 40.60660171779822,64.39339828220179 25.60660171779822,64.39339828220179 20.303300858899114,69.6966991411009 " fill="#2c2d86" stroke="#2c2d86" stroke-linecap="round" stroke-linejoin="round" transform="scale(1,1)"></polygon><polygon id="polygon94" points="20.303300858899114,69.6966991411009 25.60660171779822,64.39339828220179 10.606601717798217,64.39339828220179 5.303300858899112,69.6966991411009 " fill="#2c2d86" stroke="#2c2d86" stroke-linecap="round" stroke-linejoin="round" transform="scale(1,1)"></polygon><polygon id="polygon95" points="5.303300858899112,69.6966991411009 10.606601717798217,64.39339828220179 25.60660171779822,64.39339828220179 20.303300858899114,69.6966991411009 " fill="#2c2d86" stroke="#2c2d86" stroke-linecap="round" stroke-linejoin="round" transform="scale(1,1)"></polygon><polygon id="polygon96" points="20.303300858899114,69.6966991411009 25.60660171779822,64.39339828220179 40.60660171779822,64.39339828220179 35.303300858899114,69.6966991411009 " fill="#2c2d86" stroke="#2c2d86" stroke-linecap="round" stroke-linejoin="round" transform="scale(1,1)"></polygon><polygon id="polygon97" points="35.303300858899114,69.6966991411009 40.60660171779822,64.39339828220179 55.60660171779822,64.39339828220179 50.303300858899114,69.6966991411009 " fill="#2c2d86" stroke="#2c2d86" stroke-linecap="round" stroke-linejoin="round" transform="scale(1,1)"></polygon><polygon id="polygon98" points="50.303300858899114,69.6966991411009 55.60660171779822,64.39339828220179 70.60660171779821,64.39339828220179 65.3033008588991,69.6966991411009 " fill="#2c2d86" stroke="#2c2d86" stroke-linecap="round" stroke-linejoin="round" transform="scale(1,1)"></polygon><polygon id="polygon99" points="65.3033008588991,69.6966991411009 70.60660171779821,64.39339828220179 85.60660171779821,64.39339828220179 80.3033008588991,69.6966991411009 " fill="#2c2d86" stroke="#2c2d86" stroke-linecap="round" stroke-linejoin="round" transform="scale(1,1)"></polygon><polygon id="polygon101" points="95.3033008588991,69.6966991411009 100.60660171779821,64.39339828220179 100.60660171779821,49.39339828220179 95.3033008588991,54.69669914110089 " fill="#2c2d86" stroke="#2c2d86" stroke-linecap="round" stroke-linejoin="round" transform="scale(1,1)"></polygon><polygon id="polygon102" points="95.3033008588991,54.69669914110089 100.60660171779821,49.39339828220179 100.60660171779821,34.39339828220179 95.3033008588991,39.69669914110089 " fill="#2c2d86" stroke="#2c2d86" stroke-linecap="round" stroke-linejoin="round" transform="scale(1,1)"></polygon><polygon id="polygon103" points="95.3033008588991,39.69669914110089 100.60660171779821,34.39339828220179 85.60660171779821,34.39339828220179 80.3033008588991,39.69669914110089 " fill="#2c2d86" stroke="#2c2d86" stroke-linecap="round" stroke-linejoin="round" transform="scale(1,1)"></polygon><polygon id="polygon104" points="80.3033008588991,39.69669914110089 85.60660171779821,34.39339828220179 85.60660171779821,49.39339828220179 80.3033008588991,54.69669914110089 " fill="#2c2d86" stroke="#2c2d86" stroke-linecap="round" stroke-linejoin="round" transform="scale(1,1)"></polygon><polygon id="polygon105" points="80.3033008588991,54.69669914110089 85.60660171779821,49.39339828220179 85.60660171779821,64.39339828220179 80.3033008588991,69.6966991411009 " fill="#2c2d86" stroke="#2c2d86" stroke-linecap="round" stroke-linejoin="round" transform="scale(1,1)"></polygon><polygon id="polygon106" points="80.3033008588991,69.6966991411009 85.60660171779821,64.39339828220179 85.60660171779821,49.39339828220179 80.3033008588991,54.69669914110089 " fill="#2c2d86" stroke="#2c2d86" stroke-linecap="round" stroke-linejoin="round" transform="scale(1,1)"></polygon><polygon id="polygon107" points="80.3033008588991,54.69669914110089 85.60660171779821,49.39339828220179 85.60660171779821,34.39339828220179 80.3033008588991,39.69669914110089 " fill="#2c2d86" stroke="#2c2d86" stroke-linecap="round" stroke-linejoin="round" transform="scale(1,1)"></polygon><polygon id="polygon108" points="80.3033008588991,39.69669914110089 85.60660171779821,34.39339828220179 85.60660171779821,19.393398282201787 80.3033008588991,24.696699141100893 " fill="#2c2d86" stroke="#2c2d86" stroke-linecap="round" stroke-linejoin="round" transform="scale(1,1)"></polygon><polygon id="polygon109" points="80.3033008588991,24.696699141100893 85.60660171779821,19.393398282201787 85.60660171779821,4.393398282201786 80.3033008588991,9.696699141100893 " fill="#2c2d86" stroke="#2c2d86" stroke-linecap="round" stroke-linejoin="round" transform="scale(1,1)"></polygon><polygon id="polygon110" points="80.3033008588991,9.696699141100893 85.60660171779821,4.393398282201786 85.60660171779821,-10.606601717798215 80.3033008588991,-5.3033008588991075 " fill="#2c2d86" stroke="#2c2d86" stroke-linecap="round" stroke-linejoin="round" transform="scale(1,1)"></polygon><polygon id="polygon111" points="80.3033008588991,-5.3033008588991075 85.60660171779821,-10.606601717798215 85.60660171779821,-25.606601717798213 80.3033008588991,-20.303300858899107 " fill="#2c2d86" stroke="#2c2d86" stroke-linecap="round" stroke-linejoin="round" transform="scale(1,1)"></polygon><polygon id="polygon112" points="80.3033008588991,-20.303300858899107 85.60660171779821,-25.606601717798213 70.60660171779821,-25.606601717798217 65.3033008588991,-20.30330085889911 " fill="#2c2d86" stroke="#2c2d86" stroke-linecap="round" stroke-linejoin="round" transform="scale(1,1)"></polygon><polygon id="polygon113" points="65.3033008588991,-20.30330085889911 70.60660171779821,-25.606601717798217 55.60660171779821,-25.606601717798217 50.30330085889911,-20.30330085889911 " fill="#2c2d86" stroke="#2c2d86" stroke-linecap="round" stroke-linejoin="round" transform="scale(1,1)"></polygon><polygon id="polygon114" points="50.30330085889911,-20.30330085889911 55.60660171779821,-25.606601717798217 55.60660171779821,-10.606601717798219 50.30330085889911,-5.303300858899111 " fill="#2c2d86" stroke="#2c2d86" stroke-linecap="round" stroke-linejoin="round" transform="scale(1,1)"></polygon><polygon id="polygon115" points="50.30330085889911,-5.303300858899111 55.60660171779821,-10.606601717798219 70.60660171779821,-10.606601717798215 65.3033008588991,-5.3033008588991075 " fill="#2c2d86" stroke="#2c2d86" stroke-linecap="round" stroke-linejoin="round" transform="scale(1,1)"></polygon><polygon id="polygon116" points="65.3033008588991,-5.3033008588991075 70.60660171779821,-10.606601717798215 85.60660171779821,-10.606601717798211 80.3033008588991,-5.303300858899104 " fill="#2c2d86" stroke="#2c2d86" stroke-linecap="round" stroke-linejoin="round" transform="scale(1,1)"></polygon><polygon id="polygon117" points="80.3033008588991,-5.303300858899104 85.60660171779821,-10.606601717798211 70.60660171779821,-10.606601717798213 65.3033008588991,-5.303300858899106 " fill="#2c2d86" stroke="#2c2d86" stroke-linecap="round" stroke-linejoin="round" transform="scale(1,1)"></polygon><polygon id="polygon118" points="65.3033008588991,-5.303300858899106 70.60660171779821,-10.606601717798213 55.60660171779821,-10.606601717798215 50.30330085889911,-5.3033008588991075 " fill="#2c2d86" stroke="#2c2d86" stroke-linecap="round" stroke-linejoin="round" transform="scale(1,1)"></polygon><polygon id="polygon119" points="50.30330085889911,-5.3033008588991075 55.60660171779821,-10.606601717798215 40.60660171779821,-10.606601717798217 35.30330085889911,-5.303300858899109 " fill="#2c2d86" stroke="#2c2d86" stroke-linecap="round" stroke-linejoin="round" transform="scale(1,1)"></polygon><polygon id="polygon120" points="35.30330085889911,-5.303300858899109 40.60660171779821,-10.606601717798217 25.606601717798213,-10.606601717798219 20.303300858899107,-5.303300858899111 " fill="#2c2d86" stroke="#2c2d86" stroke-linecap="round" stroke-linejoin="round" transform="scale(1,1)"></polygon><polygon id="polygon121" points="20.303300858899107,-5.303300858899111 25.606601717798213,-10.606601717798219 10.60660171779821,-10.60660171779822 5.303300858899105,-5.303300858899113 " fill="#2c2d86" stroke="#2c2d86" stroke-linecap="round" stroke-linejoin="round" transform="scale(1,1)"></polygon><polygon id="polygon122" points="5.303300858899105,-5.303300858899113 10.60660171779821,-10.60660171779822 -4.39339828220179,-10.606601717798222 -9.696699141100895,-5.303300858899115 " fill="#2c2d86" stroke="#2c2d86" stroke-linecap="round" stroke-linejoin="round" transform="scale(1,1)"></polygon><polygon id="polygon123" points="-9.696699141100895,-5.303300858899115 -4.39339828220179,-10.606601717798222 -4.393398282201794,4.393398282201779 -9.696699141100899,9.696699141100886 " fill="#2c2d86" stroke="#2c2d86" stroke-linecap="round" stroke-linejoin="round" transform="scale(1,1)"></polygon><polygon id="polygon124" points="-9.696699141100899,9.696699141100886 -4.393398282201794,4.393398282201779 -4.393398282201797,19.39339828220178 -9.696699141100902,24.696699141100886 " fill="#2c2d86" stroke="#2c2d86" stroke-linecap="round" stroke-linejoin="round" transform="scale(1,1)"></polygon><polygon id="polygon126" points="5.303300858899098,24.69669914110089 10.606601717798203,19.393398282201783 10.606601717798206,4.393398282201782 5.303300858899102,9.69669914110089 " fill="#2c2d86" stroke="#2c2d86" stroke-linecap="round" stroke-linejoin="round" transform="scale(1,1)"></polygon><polygon id="polygon128" points="5.303300858899107,-5.303300858899111 10.606601717798211,-10.606601717798219 25.606601717798213,-10.606601717798215 20.303300858899107,-5.3033008588991075 " fill="#2c2d86" stroke="#2c2d86" stroke-linecap="round" stroke-linejoin="round" transform="scale(1,1)"></polygon><polygon id="polygon129" points="20.303300858899107,-5.3033008588991075 25.606601717798213,-10.606601717798215 25.606601717798206,4.393398282201786 20.303300858899103,9.696699141100893 " fill="#2c2d86" stroke="#2c2d86" stroke-linecap="round" stroke-linejoin="round" transform="scale(1,1)"></polygon><polygon id="polygon130" points="20.303300858899103,9.696699141100893 25.606601717798206,4.393398282201786 10.606601717798208,4.393398282201782 5.303300858899103,9.69669914110089 " fill="#2c2d86" stroke="#2c2d86" stroke-linecap="round" stroke-linejoin="round" transform="scale(1,1)"></polygon><polygon id="polygon131" points="5.303300858899103,9.69669914110089 10.606601717798208,4.393398282201782 -4.393398282201792,4.393398282201782 -9.696699141100897,9.69669914110089 " fill="#2c2d86" stroke="#2c2d86" stroke-linecap="round" stroke-linejoin="round" transform="scale(1,1)"></polygon><polygon id="polygon132" points="-9.696699141100897,9.69669914110089 -4.393398282201792,4.393398282201782 -19.393398282201787,4.393398282201779 -24.696699141100893,9.696699141100886 " fill="#2c2d86" stroke="#2c2d86" stroke-linecap="round" stroke-linejoin="round" transform="scale(1,1)"></polygon><polygon id="polygon135" points="-9.696699141100895,-5.303300858899113 -4.39339828220179,-10.60660171779822 -4.3933982822017885,-25.60660171779822 -9.696699141100893,-20.303300858899114 " fill="#2c2d86" stroke="#2c2d86" stroke-linecap="round" stroke-linejoin="round" transform="scale(1,1)"></polygon><polygon id="polygon136" points="-9.696699141100893,-20.303300858899114 -4.3933982822017885,-25.60660171779822 -19.393398282201787,-25.60660171779822 -24.696699141100893,-20.303300858899114 " fill="#2c2d86" stroke="#2c2d86" stroke-linecap="round" stroke-linejoin="round" transform="scale(1,1)"></polygon><polygon id="polygon137" points="-24.696699141100893,-20.303300858899114 -19.393398282201787,-25.60660171779822 -34.39339828220179,-25.606601717798224 -39.69669914110089,-20.303300858899117 " fill="#2c2d86" stroke="#2c2d86" stroke-linecap="round" stroke-linejoin="round" transform="scale(1,1)"></polygon><polygon id="polygon138" points="-39.69669914110089,-20.303300858899117 -34.39339828220179,-25.606601717798224 -49.39339828220179,-25.606601717798224 -54.69669914110089,-20.303300858899117 " fill="#2c2d86" stroke="#2c2d86" stroke-linecap="round" stroke-linejoin="round" transform="scale(1,1)"></polygon><polygon id="polygon140" points="-54.69669914110089,-35.30330085889912 -49.39339828220179,-40.60660171779823 -34.39339828220179,-40.60660171779823 -39.69669914110089,-35.30330085889912 " fill="#2c2d86" stroke="#2c2d86" stroke-linecap="round" stroke-linejoin="round" transform="scale(1,1)"></polygon><polygon id="polygon141" points="-39.69669914110089,-35.30330085889912 -34.39339828220179,-40.60660171779823 -19.393398282201787,-40.60660171779823 -24.696699141100893,-35.30330085889912 " fill="#2c2d86" stroke="#2c2d86" stroke-linecap="round" stroke-linejoin="round" transform="scale(1,1)"></polygon><polygon id="polygon142" points="-24.696699141100893,-35.30330085889912 -19.393398282201787,-40.60660171779823 -4.39339828220179,-40.60660171779823 -9.696699141100895,-35.30330085889912 " fill="#2c2d86" stroke="#2c2d86" stroke-linecap="round" stroke-linejoin="round" transform="scale(1,1)"></polygon><polygon id="polygon143" points="-9.696699141100895,-35.30330085889912 -4.39339828220179,-40.60660171779823 -4.3933982822017885,-25.606601717798224 -9.696699141100893,-20.303300858899117 " fill="#2c2d86" stroke="#2c2d86" stroke-linecap="round" stroke-linejoin="round" transform="scale(1,1)"></polygon><polygon id="polygon144" points="-9.696699141100893,-20.303300858899117 -4.3933982822017885,-25.606601717798224 -19.393398282201787,-25.606601717798224 -24.696699141100893,-20.303300858899117 " fill="#2c2d86" stroke="#2c2d86" stroke-linecap="round" stroke-linejoin="round" transform="scale(1,1)"></polygon><polygon id="polygon145" points="-24.696699141100893,-20.303300858899117 -19.393398282201787,-25.606601717798224 -19.393398282201787,-10.606601717798224 -24.696699141100893,-5.303300858899116 " fill="#2c2d86" stroke="#2c2d86" stroke-linecap="round" stroke-linejoin="round" transform="scale(1,1)"></polygon><polygon id="polygon146" points="-24.696699141100893,-5.303300858899116 -19.393398282201787,-10.606601717798224 -4.39339828220179,-10.606601717798224 -9.696699141100895,-5.303300858899116 " fill="#2c2d86" stroke="#2c2d86" stroke-linecap="round" stroke-linejoin="round" transform="scale(1,1)"></polygon><polygon id="polygon147" points="-9.696699141100895,-5.303300858899116 -4.39339828220179,-10.606601717798224 10.60660171779821,-10.606601717798224 5.303300858899105,-5.303300858899116 " fill="#2c2d86" stroke="#2c2d86" stroke-linecap="round" stroke-linejoin="round" transform="scale(1,1)"></polygon><polygon id="polygon148" points="5.303300858899105,-5.303300858899116 10.60660171779821,-10.606601717798224 25.606601717798213,-10.606601717798224 20.303300858899107,-5.303300858899116 " fill="#2c2d86" stroke="#2c2d86" stroke-linecap="round" stroke-linejoin="round" transform="scale(1,1)"></polygon><polygon id="polygon149" points="20.303300858899107,-5.303300858899116 25.606601717798213,-10.606601717798224 25.606601717798213,4.393398282201775 20.303300858899107,9.696699141100883 " fill="#2c2d86" stroke="#2c2d86" stroke-linecap="round" stroke-linejoin="round" transform="scale(1,1)"></polygon><polygon id="polygon150" points="20.303300858899107,9.696699141100883 25.606601717798213,4.393398282201775 10.606601717798211,4.393398282201779 5.303300858899107,9.696699141100886 " fill="#2c2d86" stroke="#2c2d86" stroke-linecap="round" stroke-linejoin="round" transform="scale(1,1)"></polygon><polygon id="polygon151" points="5.303300858899107,9.696699141100886 10.606601717798211,4.393398282201779 -4.3933982822017885,4.393398282201779 -9.696699141100893,9.696699141100886 " fill="#2c2d86" stroke="#2c2d86" stroke-linecap="round" stroke-linejoin="round" transform="scale(1,1)"></polygon><polygon id="polygon152" points="-9.696699141100893,9.696699141100886 -4.3933982822017885,4.393398282201779 -19.393398282201787,4.393398282201782 -24.696699141100893,9.69669914110089 " fill="#2c2d86" stroke="#2c2d86" stroke-linecap="round" stroke-linejoin="round" transform="scale(1,1)"></polygon><polygon id="polygon155" points="-9.696699141100899,-5.303300858899115 -4.393398282201794,-10.606601717798222 -4.393398282201797,-25.60660171779822 -9.696699141100902,-20.303300858899114 " fill="#2c2d86" stroke="#2c2d86" stroke-linecap="round" stroke-linejoin="round" transform="scale(1,1)"></polygon><polygon id="polygon156" points="-9.696699141100902,-20.303300858899114 -4.393398282201797,-25.60660171779822 -19.393398282201794,-25.60660171779822 -24.6966991411009,-20.303300858899114 " fill="#2c2d86" stroke="#2c2d86" stroke-linecap="round" stroke-linejoin="round" transform="scale(1,1)"></polygon><polygon id="polygon157" points="-24.6966991411009,-20.303300858899114 -19.393398282201794,-25.60660171779822 -34.393398282201794,-25.606601717798217 -39.6966991411009,-20.30330085889911 " fill="#2c2d86" stroke="#2c2d86" stroke-linecap="round" stroke-linejoin="round" transform="scale(1,1)"></polygon><polygon id="polygon158" points="-39.6966991411009,-20.30330085889911 -34.393398282201794,-25.606601717798217 -49.393398282201794,-25.606601717798217 -54.6966991411009,-20.30330085889911 " fill="#2c2d86" stroke="#2c2d86" stroke-linecap="round" stroke-linejoin="round" transform="scale(1,1)"></polygon><polygon id="polygon160" points="-54.6966991411009,-35.30330085889911 -49.393398282201794,-40.60660171779821 -34.393398282201794,-40.60660171779822 -39.6966991411009,-35.303300858899114 " fill="#2c2d86" stroke="#2c2d86" stroke-linecap="round" stroke-linejoin="round" transform="scale(1,1)"></polygon><polygon id="polygon161" points="-39.6966991411009,-35.303300858899114 -34.393398282201794,-40.60660171779822 -19.393398282201794,-40.60660171779822 -24.6966991411009,-35.303300858899114 " fill="#2c2d86" stroke="#2c2d86" stroke-linecap="round" stroke-linejoin="round" transform="scale(1,1)"></polygon><polygon id="polygon162" points="-24.6966991411009,-35.303300858899114 -19.393398282201794,-40.60660171779822 -4.393398282201797,-40.60660171779823 -9.696699141100902,-35.30330085889912 " fill="#2c2d86" stroke="#2c2d86" stroke-linecap="round" stroke-linejoin="round" transform="scale(1,1)"></polygon><polygon id="polygon163" points="-9.696699141100902,-35.30330085889912 -4.393398282201797,-40.60660171779823 -4.393398282201792,-25.606601717798224 -9.696699141100897,-20.303300858899117 " fill="#2c2d86" stroke="#2c2d86" stroke-linecap="round" stroke-linejoin="round" transform="scale(1,1)"></polygon><polygon id="polygon164" points="-9.696699141100897,-20.303300858899117 -4.393398282201792,-25.606601717798224 -19.393398282201787,-25.60660171779822 -24.696699141100893,-20.303300858899114 " fill="#2c2d86" stroke="#2c2d86" stroke-linecap="round" stroke-linejoin="round" transform="scale(1,1)"></polygon><polygon id="polygon165" points="-24.696699141100893,-20.303300858899114 -19.393398282201787,-25.60660171779822 -19.393398282201787,-10.60660171779822 -24.696699141100893,-5.303300858899113 " fill="#2c2d86" stroke="#2c2d86" stroke-linecap="round" stroke-linejoin="round" transform="scale(1,1)"></polygon><polygon id="polygon166" points="-24.696699141100893,-5.303300858899113 -19.393398282201787,-10.60660171779822 -4.393398282201787,-10.606601717798224 -9.696699141100892,-5.303300858899116 " fill="#2c2d86" stroke="#2c2d86" stroke-linecap="round" stroke-linejoin="round" transform="scale(1,1)"></polygon><polygon id="polygon167" points="-9.696699141100892,-5.303300858899116 -4.393398282201787,-10.606601717798224 10.606601717798213,-10.606601717798227 5.303300858899108,-5.30330085889912 " fill="#2c2d86" stroke="#2c2d86" stroke-linecap="round" stroke-linejoin="round" transform="scale(1,1)"></polygon><polygon id="polygon159" points="-54.6966991411009,-20.30330085889911 -49.393398282201794,-25.606601717798217 -49.393398282201794,-40.60660171779821 -54.6966991411009,-35.30330085889911 " fill="#2c2d86" stroke="#2c2d86" stroke-linecap="round" stroke-linejoin="round" transform="scale(1,1)"></polygon><polygon id="polygon154" points="-24.6966991411009,-5.303300858899111 -19.393398282201794,-10.606601717798219 -4.393398282201794,-10.606601717798222 -9.696699141100899,-5.303300858899115 " fill="#2c2d86" stroke="#2c2d86" stroke-linecap="round" stroke-linejoin="round" transform="scale(1,1)"></polygon><polygon id="polygon153" points="-24.696699141100893,9.69669914110089 -19.393398282201787,4.393398282201782 -19.393398282201794,-10.606601717798219 -24.6966991411009,-5.303300858899111 " fill="#2c2d86" stroke="#2c2d86" stroke-linecap="round" stroke-linejoin="round" transform="scale(1,1)"></polygon><polygon id="polygon139" points="-54.69669914110089,-20.303300858899117 -49.39339828220179,-25.606601717798224 -49.39339828220179,-40.60660171779823 -54.69669914110089,-35.30330085889912 " fill="#2c2d86" stroke="#2c2d86" stroke-linecap="round" stroke-linejoin="round" transform="scale(1,1)"></polygon><polygon id="polygon134" points="-24.696699141100893,-5.303300858899113 -19.393398282201787,-10.60660171779822 -4.39339828220179,-10.60660171779822 -9.696699141100895,-5.303300858899113 " fill="#2c2d86" stroke="#2c2d86" stroke-linecap="round" stroke-linejoin="round" transform="scale(1,1)"></polygon><polygon id="polygon133" points="-24.696699141100893,9.696699141100886 -19.393398282201787,4.393398282201779 -19.393398282201787,-10.60660171779822 -24.696699141100893,-5.303300858899113 " fill="#2c2d86" stroke="#2c2d86" stroke-linecap="round" stroke-linejoin="round" transform="scale(1,1)"></polygon><polygon id="polygon127" points="5.303300858899102,9.69669914110089 10.606601717798206,4.393398282201782 10.606601717798211,-10.606601717798219 5.303300858899107,-5.303300858899111 " fill="#2c2d86" stroke="#2c2d86" stroke-linecap="round" stroke-linejoin="round" transform="scale(1,1)"></polygon><polygon id="polygon125" points="-9.696699141100902,24.696699141100886 -4.393398282201797,19.39339828220178 10.606601717798203,19.393398282201783 5.303300858899098,24.69669914110089 " fill="#2c2d86" stroke="#2c2d86" stroke-linecap="round" stroke-linejoin="round" transform="scale(1,1)"></polygon><polygon id="polygon100" points="80.3033008588991,69.6966991411009 85.60660171779821,64.39339828220179 100.60660171779821,64.39339828220179 95.3033008588991,69.6966991411009 " fill="#2c2d86" stroke="#2c2d86" stroke-linecap="round" stroke-linejoin="round" transform="scale(1,1)"></polygon><polygon id="polygon91" points="20.30330085889911,84.6966991411009 25.606601717798213,79.39339828220179 40.60660171779822,79.39339828220179 35.303300858899114,84.6966991411009 " fill="#2c2d86" stroke="#2c2d86" stroke-linecap="round" stroke-linejoin="round" transform="scale(1,1)"></polygon></g><g id="g2"><polygon id="polygon168" points="10.60660171779821,-10.606601717798215 14.142135623730947,-14.142135623730955 14.142135623730947,0.8578643762690472 10.60660171779821,4.393398282201786 " fill="#97aecf" stroke="#97aecf" stroke-linecap="round" stroke-linejoin="round" transform="scale(1,1)"></polygon><polygon id="polygon169" points="10.60660171779821,4.393398282201786 14.142135623730947,0.8578643762690472 14.142135623730947,15.857864376269049 10.606601717798211,19.393398282201787 " fill="#97aecf" stroke="#97aecf" stroke-linecap="round" stroke-linejoin="round" transform="scale(1,1)"></polygon><polygon id="polygon170" points="10.606601717798211,19.393398282201787 14.142135623730947,15.857864376269049 14.142135623730951,30.85786437626905 10.606601717798213,34.39339828220179 " fill="#97aecf" stroke="#97aecf" stroke-linecap="round" stroke-linejoin="round" transform="scale(1,1)"></polygon><polygon id="polygon171" points="10.606601717798213,34.39339828220179 14.142135623730951,30.85786437626905 14.142135623730951,45.85786437626905 10.606601717798213,49.39339828220179 " fill="#97aecf" stroke="#97aecf" stroke-linecap="round" stroke-linejoin="round" transform="scale(1,1)"></polygon><polygon id="polygon172" points="10.606601717798213,49.39339828220179 14.142135623730951,45.85786437626905 14.142135623730951,60.85786437626905 10.606601717798213,64.39339828220179 " fill="#97aecf" stroke="#97aecf" stroke-linecap="round" stroke-linejoin="round" transform="scale(1,1)"></polygon><polygon id="polygon173" points="10.606601717798213,64.39339828220179 14.142135623730951,60.85786437626905 14.142135623730951,75.85786437626905 10.606601717798215,79.39339828220179 " fill="#97aecf" stroke="#97aecf" stroke-linecap="round" stroke-linejoin="round" transform="scale(1,1)"></polygon><polygon id="polygon174" points="10.606601717798215,79.39339828220179 14.142135623730951,75.85786437626905 29.14213562373095,75.85786437626905 25.606601717798213,79.39339828220179 " fill="#97aecf" stroke="#97aecf" stroke-linecap="round" stroke-linejoin="round" transform="scale(1,1)"></polygon><polygon id="polygon176" points="40.60660171779822,79.39339828220179 44.14213562373096,75.85786437626905 44.14213562373096,60.85786437626905 40.60660171779822,64.39339828220179 " fill="#97aecf" stroke="#97aecf" stroke-linecap="round" stroke-linejoin="round" transform="scale(1,1)"></polygon><polygon id="polygon177" points="40.60660171779822,64.39339828220179 44.14213562373096,60.85786437626905 29.142135623730958,60.85786437626905 25.60660171779822,64.39339828220179 " fill="#97aecf" stroke="#97aecf" stroke-linecap="round" stroke-linejoin="round" transform="scale(1,1)"></polygon><polygon id="polygon178" points="25.60660171779822,64.39339828220179 29.142135623730958,60.85786437626905 14.142135623730955,60.85786437626905 10.606601717798217,64.39339828220179 " fill="#97aecf" stroke="#97aecf" stroke-linecap="round" stroke-linejoin="round" transform="scale(1,1)"></polygon><polygon id="polygon179" points="10.606601717798217,64.39339828220179 14.142135623730955,60.85786437626905 29.142135623730958,60.85786437626905 25.60660171779822,64.39339828220179 " fill="#97aecf" stroke="#97aecf" stroke-linecap="round" stroke-linejoin="round" transform="scale(1,1)"></polygon><polygon id="polygon180" points="25.60660171779822,64.39339828220179 29.142135623730958,60.85786437626905 44.14213562373096,60.85786437626905 40.60660171779822,64.39339828220179 " fill="#97aecf" stroke="#97aecf" stroke-linecap="round" stroke-linejoin="round" transform="scale(1,1)"></polygon><polygon id="polygon181" points="40.60660171779822,64.39339828220179 44.14213562373096,60.85786437626905 59.14213562373096,60.85786437626905 55.60660171779822,64.39339828220179 " fill="#97aecf" stroke="#97aecf" stroke-linecap="round" stroke-linejoin="round" transform="scale(1,1)"></polygon><polygon id="polygon182" points="55.60660171779822,64.39339828220179 59.14213562373096,60.85786437626905 74.14213562373095,60.85786437626905 70.60660171779821,64.39339828220179 " fill="#97aecf" stroke="#97aecf" stroke-linecap="round" stroke-linejoin="round" transform="scale(1,1)"></polygon><polygon id="polygon183" points="70.60660171779821,64.39339828220179 74.14213562373095,60.85786437626905 89.14213562373095,60.85786437626905 85.60660171779821,64.39339828220179 " fill="#97aecf" stroke="#97aecf" stroke-linecap="round" stroke-linejoin="round" transform="scale(1,1)"></polygon><polygon id="polygon185" points="100.60660171779821,64.39339828220179 104.14213562373095,60.85786437626905 104.14213562373095,45.85786437626905 100.60660171779821,49.39339828220179 " fill="#97aecf" stroke="#97aecf" stroke-linecap="round" stroke-linejoin="round" transform="scale(1,1)"></polygon><polygon id="polygon186" points="100.60660171779821,49.39339828220179 104.14213562373095,45.85786437626905 104.14213562373095,30.85786437626905 100.60660171779821,34.39339828220179 " fill="#97aecf" stroke="#97aecf" stroke-linecap="round" stroke-linejoin="round" transform="scale(1,1)"></polygon><polygon id="polygon187" points="100.60660171779821,34.39339828220179 104.14213562373095,30.85786437626905 89.14213562373095,30.85786437626905 85.60660171779821,34.39339828220179 " fill="#97aecf" stroke="#97aecf" stroke-linecap="round" stroke-linejoin="round" transform="scale(1,1)"></polygon><polygon id="polygon188" points="85.60660171779821,34.39339828220179 89.14213562373095,30.85786437626905 89.14213562373095,45.85786437626905 85.60660171779821,49.39339828220179 " fill="#97aecf" stroke="#97aecf" stroke-linecap="round" stroke-linejoin="round" transform="scale(1,1)"></polygon><polygon id="polygon189" points="85.60660171779821,49.39339828220179 89.14213562373095,45.85786437626905 89.14213562373095,60.85786437626905 85.60660171779821,64.39339828220179 " fill="#97aecf" stroke="#97aecf" stroke-linecap="round" stroke-linejoin="round" transform="scale(1,1)"></polygon><polygon id="polygon190" points="85.60660171779821,64.39339828220179 89.14213562373095,60.85786437626905 89.14213562373095,45.85786437626905 85.60660171779821,49.39339828220179 " fill="#97aecf" stroke="#97aecf" stroke-linecap="round" stroke-linejoin="round" transform="scale(1,1)"></polygon><polygon id="polygon191" points="85.60660171779821,49.39339828220179 89.14213562373095,45.85786437626905 89.14213562373095,30.85786437626905 85.60660171779821,34.39339828220179 " fill="#97aecf" stroke="#97aecf" stroke-linecap="round" stroke-linejoin="round" transform="scale(1,1)"></polygon><polygon id="polygon192" points="85.60660171779821,34.39339828220179 89.14213562373095,30.85786437626905 89.14213562373095,15.857864376269049 85.60660171779821,19.393398282201787 " fill="#97aecf" stroke="#97aecf" stroke-linecap="round" stroke-linejoin="round" transform="scale(1,1)"></polygon><polygon id="polygon193" points="85.60660171779821,19.393398282201787 89.14213562373095,15.857864376269049 89.14213562373095,0.8578643762690472 85.60660171779821,4.393398282201786 " fill="#97aecf" stroke="#97aecf" stroke-linecap="round" stroke-linejoin="round" transform="scale(1,1)"></polygon><polygon id="polygon194" points="85.60660171779821,4.393398282201786 89.14213562373095,0.8578643762690472 89.14213562373095,-14.142135623730955 85.60660171779821,-10.606601717798215 " fill="#97aecf" stroke="#97aecf" stroke-linecap="round" stroke-linejoin="round" transform="scale(1,1)"></polygon><polygon id="polygon195" points="85.60660171779821,-10.606601717798215 89.14213562373095,-14.142135623730955 89.14213562373095,-29.14213562373095 85.60660171779821,-25.606601717798213 " fill="#97aecf" stroke="#97aecf" stroke-linecap="round" stroke-linejoin="round" transform="scale(1,1)"></polygon><polygon id="polygon196" points="85.60660171779821,-25.606601717798213 89.14213562373095,-29.14213562373095 74.14213562373095,-29.142135623730955 70.60660171779821,-25.606601717798217 " fill="#97aecf" stroke="#97aecf" stroke-linecap="round" stroke-linejoin="round" transform="scale(1,1)"></polygon><polygon id="polygon197" points="70.60660171779821,-25.606601717798217 74.14213562373095,-29.142135623730955 59.14213562373095,-29.142135623730955 55.60660171779821,-25.606601717798217 " fill="#97aecf" stroke="#97aecf" stroke-linecap="round" stroke-linejoin="round" transform="scale(1,1)"></polygon><polygon id="polygon198" points="55.60660171779821,-25.606601717798217 59.14213562373095,-29.142135623730955 59.14213562373095,-14.142135623730958 55.60660171779821,-10.606601717798219 " fill="#97aecf" stroke="#97aecf" stroke-linecap="round" stroke-linejoin="round" transform="scale(1,1)"></polygon><polygon id="polygon199" points="55.60660171779821,-10.606601717798219 59.14213562373095,-14.142135623730958 74.14213562373095,-14.142135623730955 70.60660171779821,-10.606601717798215 " fill="#97aecf" stroke="#97aecf" stroke-linecap="round" stroke-linejoin="round" transform="scale(1,1)"></polygon><polygon id="polygon200" points="70.60660171779821,-10.606601717798215 74.14213562373095,-14.142135623730955 89.14213562373095,-14.142135623730951 85.60660171779821,-10.606601717798211 " fill="#97aecf" stroke="#97aecf" stroke-linecap="round" stroke-linejoin="round" transform="scale(1,1)"></polygon><polygon id="polygon201" points="85.60660171779821,-10.606601717798211 89.14213562373095,-14.142135623730951 74.14213562373095,-14.142135623730951 70.60660171779821,-10.606601717798213 " fill="#97aecf" stroke="#97aecf" stroke-linecap="round" stroke-linejoin="round" transform="scale(1,1)"></polygon><polygon id="polygon202" points="70.60660171779821,-10.606601717798213 74.14213562373095,-14.142135623730951 59.14213562373095,-14.142135623730955 55.60660171779821,-10.606601717798215 " fill="#97aecf" stroke="#97aecf" stroke-linecap="round" stroke-linejoin="round" transform="scale(1,1)"></polygon><polygon id="polygon203" points="55.60660171779821,-10.606601717798215 59.14213562373095,-14.142135623730955 44.14213562373095,-14.142135623730955 40.60660171779821,-10.606601717798217 " fill="#97aecf" stroke="#97aecf" stroke-linecap="round" stroke-linejoin="round" transform="scale(1,1)"></polygon><polygon id="polygon204" points="40.60660171779821,-10.606601717798217 44.14213562373095,-14.142135623730955 29.14213562373095,-14.142135623730958 25.606601717798213,-10.606601717798219 " fill="#97aecf" stroke="#97aecf" stroke-linecap="round" stroke-linejoin="round" transform="scale(1,1)"></polygon><polygon id="polygon205" points="25.606601717798213,-10.606601717798219 29.14213562373095,-14.142135623730958 14.142135623730947,-14.142135623730958 10.60660171779821,-10.60660171779822 " fill="#97aecf" stroke="#97aecf" stroke-linecap="round" stroke-linejoin="round" transform="scale(1,1)"></polygon><polygon id="polygon206" points="10.60660171779821,-10.60660171779822 14.142135623730947,-14.142135623730958 -0.8578643762690534,-14.142135623730962 -4.39339828220179,-10.606601717798222 " fill="#97aecf" stroke="#97aecf" stroke-linecap="round" stroke-linejoin="round" transform="scale(1,1)"></polygon><polygon id="polygon207" points="-4.39339828220179,-10.606601717798222 -0.8578643762690534,-14.142135623730962 -0.857864376269057,0.8578643762690401 -4.393398282201794,4.393398282201779 " fill="#97aecf" stroke="#97aecf" stroke-linecap="round" stroke-linejoin="round" transform="scale(1,1)"></polygon><polygon id="polygon208" points="-4.393398282201794,4.393398282201779 -0.857864376269057,0.8578643762690401 -0.8578643762690605,15.857864376269042 -4.393398282201797,19.39339828220178 " fill="#97aecf" stroke="#97aecf" stroke-linecap="round" stroke-linejoin="round" transform="scale(1,1)"></polygon><polygon id="polygon210" points="10.606601717798203,19.393398282201783 14.14213562373094,15.857864376269045 14.142135623730944,0.8578643762690437 10.606601717798206,4.393398282201782 " fill="#97aecf" stroke="#97aecf" stroke-linecap="round" stroke-linejoin="round" transform="scale(1,1)"></polygon><polygon id="polygon212" points="10.606601717798211,-10.606601717798219 14.142135623730947,-14.142135623730958 29.14213562373095,-14.142135623730955 25.606601717798213,-10.606601717798215 " fill="#97aecf" stroke="#97aecf" stroke-linecap="round" stroke-linejoin="round" transform="scale(1,1)"></polygon><polygon id="polygon213" points="25.606601717798213,-10.606601717798215 29.14213562373095,-14.142135623730955 29.142135623730944,0.8578643762690472 25.606601717798206,4.393398282201786 " fill="#97aecf" stroke="#97aecf" stroke-linecap="round" stroke-linejoin="round" transform="scale(1,1)"></polygon><polygon id="polygon214" points="25.606601717798206,4.393398282201786 29.142135623730944,0.8578643762690472 14.142135623730944,0.8578643762690437 10.606601717798208,4.393398282201782 " fill="#97aecf" stroke="#97aecf" stroke-linecap="round" stroke-linejoin="round" transform="scale(1,1)"></polygon><polygon id="polygon215" points="10.606601717798208,4.393398282201782 14.142135623730944,0.8578643762690437 -0.8578643762690552,0.8578643762690437 -4.393398282201792,4.393398282201782 " fill="#97aecf" stroke="#97aecf" stroke-linecap="round" stroke-linejoin="round" transform="scale(1,1)"></polygon><polygon id="polygon216" points="-4.393398282201792,4.393398282201782 -0.8578643762690552,0.8578643762690437 -15.857864376269049,0.8578643762690401 -19.393398282201787,4.393398282201779 " fill="#97aecf" stroke="#97aecf" stroke-linecap="round" stroke-linejoin="round" transform="scale(1,1)"></polygon><polygon id="polygon219" points="-4.39339828220179,-10.60660171779822 -0.8578643762690534,-14.142135623730958 -0.8578643762690517,-29.142135623730958 -4.3933982822017885,-25.60660171779822 " fill="#97aecf" stroke="#97aecf" stroke-linecap="round" stroke-linejoin="round" transform="scale(1,1)"></polygon><polygon id="polygon220" points="-4.3933982822017885,-25.60660171779822 -0.8578643762690517,-29.142135623730958 -15.857864376269049,-29.142135623730958 -19.393398282201787,-25.60660171779822 " fill="#97aecf" stroke="#97aecf" stroke-linecap="round" stroke-linejoin="round" transform="scale(1,1)"></polygon><polygon id="polygon221" points="-19.393398282201787,-25.60660171779822 -15.857864376269049,-29.142135623730958 -30.85786437626905,-29.14213562373096 -34.39339828220179,-25.606601717798224 " fill="#97aecf" stroke="#97aecf" stroke-linecap="round" stroke-linejoin="round" transform="scale(1,1)"></polygon><polygon id="polygon222" points="-34.39339828220179,-25.606601717798224 -30.85786437626905,-29.14213562373096 -45.85786437626905,-29.14213562373096 -49.39339828220179,-25.606601717798224 " fill="#97aecf" stroke="#97aecf" stroke-linecap="round" stroke-linejoin="round" transform="scale(1,1)"></polygon><polygon id="polygon224" points="-49.39339828220179,-40.60660171779823 -45.85786437626905,-44.142135623730965 -30.85786437626905,-44.142135623730965 -34.39339828220179,-40.60660171779823 " fill="#97aecf" stroke="#97aecf" stroke-linecap="round" stroke-linejoin="round" transform="scale(1,1)"></polygon><polygon id="polygon225" points="-34.39339828220179,-40.60660171779823 -30.85786437626905,-44.142135623730965 -15.857864376269049,-44.142135623730965 -19.393398282201787,-40.60660171779823 " fill="#97aecf" stroke="#97aecf" stroke-linecap="round" stroke-linejoin="round" transform="scale(1,1)"></polygon><polygon id="polygon226" points="-19.393398282201787,-40.60660171779823 -15.857864376269049,-44.142135623730965 -0.8578643762690534,-44.142135623730965 -4.39339828220179,-40.60660171779823 " fill="#97aecf" stroke="#97aecf" stroke-linecap="round" stroke-linejoin="round" transform="scale(1,1)"></polygon><polygon id="polygon227" points="-4.39339828220179,-40.60660171779823 -0.8578643762690534,-44.142135623730965 -0.8578643762690517,-29.14213562373096 -4.3933982822017885,-25.606601717798224 " fill="#97aecf" stroke="#97aecf" stroke-linecap="round" stroke-linejoin="round" transform="scale(1,1)"></polygon><polygon id="polygon228" points="-4.3933982822017885,-25.606601717798224 -0.8578643762690517,-29.14213562373096 -15.857864376269049,-29.14213562373096 -19.393398282201787,-25.606601717798224 " fill="#97aecf" stroke="#97aecf" stroke-linecap="round" stroke-linejoin="round" transform="scale(1,1)"></polygon><polygon id="polygon229" points="-19.393398282201787,-25.606601717798224 -15.857864376269049,-29.14213562373096 -15.857864376269049,-14.142135623730962 -19.393398282201787,-10.606601717798224 " fill="#97aecf" stroke="#97aecf" stroke-linecap="round" stroke-linejoin="round" transform="scale(1,1)"></polygon><polygon id="polygon230" points="-19.393398282201787,-10.606601717798224 -15.857864376269049,-14.142135623730962 -0.8578643762690534,-14.142135623730962 -4.39339828220179,-10.606601717798224 " fill="#97aecf" stroke="#97aecf" stroke-linecap="round" stroke-linejoin="round" transform="scale(1,1)"></polygon><polygon id="polygon231" points="-4.39339828220179,-10.606601717798224 -0.8578643762690534,-14.142135623730962 14.142135623730947,-14.142135623730962 10.60660171779821,-10.606601717798224 " fill="#97aecf" stroke="#97aecf" stroke-linecap="round" stroke-linejoin="round" transform="scale(1,1)"></polygon><polygon id="polygon232" points="10.60660171779821,-10.606601717798224 14.142135623730947,-14.142135623730962 29.14213562373095,-14.142135623730962 25.606601717798213,-10.606601717798224 " fill="#97aecf" stroke="#97aecf" stroke-linecap="round" stroke-linejoin="round" transform="scale(1,1)"></polygon><polygon id="polygon233" points="25.606601717798213,-10.606601717798224 29.14213562373095,-14.142135623730962 29.14213562373095,0.8578643762690366 25.606601717798213,4.393398282201775 " fill="#97aecf" stroke="#97aecf" stroke-linecap="round" stroke-linejoin="round" transform="scale(1,1)"></polygon><polygon id="polygon234" points="25.606601717798213,4.393398282201775 29.14213562373095,0.8578643762690366 14.142135623730947,0.8578643762690401 10.606601717798211,4.393398282201779 " fill="#97aecf" stroke="#97aecf" stroke-linecap="round" stroke-linejoin="round" transform="scale(1,1)"></polygon><polygon id="polygon235" points="10.606601717798211,4.393398282201779 14.142135623730947,0.8578643762690401 -0.8578643762690517,0.8578643762690401 -4.3933982822017885,4.393398282201779 " fill="#97aecf" stroke="#97aecf" stroke-linecap="round" stroke-linejoin="round" transform="scale(1,1)"></polygon><polygon id="polygon236" points="-4.3933982822017885,4.393398282201779 -0.8578643762690517,0.8578643762690401 -15.857864376269049,0.8578643762690437 -19.393398282201787,4.393398282201782 " fill="#97aecf" stroke="#97aecf" stroke-linecap="round" stroke-linejoin="round" transform="scale(1,1)"></polygon><polygon id="polygon239" points="-4.393398282201794,-10.606601717798222 -0.857864376269057,-14.142135623730962 -0.8578643762690605,-29.142135623730958 -4.393398282201797,-25.60660171779822 " fill="#97aecf" stroke="#97aecf" stroke-linecap="round" stroke-linejoin="round" transform="scale(1,1)"></polygon><polygon id="polygon240" points="-4.393398282201797,-25.60660171779822 -0.8578643762690605,-29.142135623730958 -15.857864376269056,-29.142135623730958 -19.393398282201794,-25.60660171779822 " fill="#97aecf" stroke="#97aecf" stroke-linecap="round" stroke-linejoin="round" transform="scale(1,1)"></polygon><polygon id="polygon241" points="-19.393398282201794,-25.60660171779822 -15.857864376269056,-29.142135623730958 -30.857864376269056,-29.142135623730955 -34.393398282201794,-25.606601717798217 " fill="#97aecf" stroke="#97aecf" stroke-linecap="round" stroke-linejoin="round" transform="scale(1,1)"></polygon><polygon id="polygon242" points="-34.393398282201794,-25.606601717798217 -30.857864376269056,-29.142135623730955 -45.857864376269056,-29.142135623730955 -49.393398282201794,-25.606601717798217 " fill="#97aecf" stroke="#97aecf" stroke-linecap="round" stroke-linejoin="round" transform="scale(1,1)"></polygon><polygon id="polygon244" points="-49.393398282201794,-40.60660171779821 -45.857864376269056,-44.14213562373095 -30.857864376269056,-44.14213562373096 -34.393398282201794,-40.60660171779822 " fill="#97aecf" stroke="#97aecf" stroke-linecap="round" stroke-linejoin="round" transform="scale(1,1)"></polygon><polygon id="polygon245" points="-34.393398282201794,-40.60660171779822 -30.857864376269056,-44.14213562373096 -15.857864376269056,-44.14213562373096 -19.393398282201794,-40.60660171779822 " fill="#97aecf" stroke="#97aecf" stroke-linecap="round" stroke-linejoin="round" transform="scale(1,1)"></polygon><polygon id="polygon246" points="-19.393398282201794,-40.60660171779822 -15.857864376269056,-44.14213562373096 -0.8578643762690605,-44.142135623730965 -4.393398282201797,-40.60660171779823 " fill="#97aecf" stroke="#97aecf" stroke-linecap="round" stroke-linejoin="round" transform="scale(1,1)"></polygon><polygon id="polygon247" points="-4.393398282201797,-40.60660171779823 -0.8578643762690605,-44.142135623730965 -0.8578643762690552,-29.14213562373096 -4.393398282201792,-25.606601717798224 " fill="#97aecf" stroke="#97aecf" stroke-linecap="round" stroke-linejoin="round" transform="scale(1,1)"></polygon><polygon id="polygon248" points="-4.393398282201792,-25.606601717798224 -0.8578643762690552,-29.14213562373096 -15.857864376269049,-29.142135623730958 -19.393398282201787,-25.60660171779822 " fill="#97aecf" stroke="#97aecf" stroke-linecap="round" stroke-linejoin="round" transform="scale(1,1)"></polygon><polygon id="polygon249" points="-19.393398282201787,-25.60660171779822 -15.857864376269049,-29.142135623730958 -15.857864376269049,-14.142135623730958 -19.393398282201787,-10.60660171779822 " fill="#97aecf" stroke="#97aecf" stroke-linecap="round" stroke-linejoin="round" transform="scale(1,1)"></polygon><polygon id="polygon250" points="-19.393398282201787,-10.60660171779822 -15.857864376269049,-14.142135623730958 -0.8578643762690499,-14.142135623730962 -4.393398282201787,-10.606601717798224 " fill="#97aecf" stroke="#97aecf" stroke-linecap="round" stroke-linejoin="round" transform="scale(1,1)"></polygon><polygon id="polygon251" points="-4.393398282201787,-10.606601717798224 -0.8578643762690499,-14.142135623730962 14.142135623730951,-14.142135623730965 10.606601717798213,-10.606601717798227 " fill="#97aecf" stroke="#97aecf" stroke-linecap="round" stroke-linejoin="round" transform="scale(1,1)"></polygon><polygon id="polygon243" points="-49.393398282201794,-25.606601717798217 -45.857864376269056,-29.142135623730955 -45.857864376269056,-44.14213562373095 -49.393398282201794,-40.60660171779821 " fill="#97aecf" stroke="#97aecf" stroke-linecap="round" stroke-linejoin="round" transform="scale(1,1)"></polygon><polygon id="polygon238" points="-19.393398282201794,-10.606601717798219 -15.857864376269056,-14.142135623730958 -0.857864376269057,-14.142135623730962 -4.393398282201794,-10.606601717798222 " fill="#97aecf" stroke="#97aecf" stroke-linecap="round" stroke-linejoin="round" transform="scale(1,1)"></polygon><polygon id="polygon237" points="-19.393398282201787,4.393398282201782 -15.857864376269049,0.8578643762690437 -15.857864376269056,-14.142135623730958 -19.393398282201794,-10.606601717798219 " fill="#97aecf" stroke="#97aecf" stroke-linecap="round" stroke-linejoin="round" transform="scale(1,1)"></polygon><polygon id="polygon223" points="-49.39339828220179,-25.606601717798224 -45.85786437626905,-29.14213562373096 -45.85786437626905,-44.142135623730965 -49.39339828220179,-40.60660171779823 " fill="#97aecf" stroke="#97aecf" stroke-linecap="round" stroke-linejoin="round" transform="scale(1,1)"></polygon><polygon id="polygon218" points="-19.393398282201787,-10.60660171779822 -15.857864376269049,-14.142135623730958 -0.8578643762690534,-14.142135623730958 -4.39339828220179,-10.60660171779822 " fill="#97aecf" stroke="#97aecf" stroke-linecap="round" stroke-linejoin="round" transform="scale(1,1)"></polygon><polygon id="polygon217" points="-19.393398282201787,4.393398282201779 -15.857864376269049,0.8578643762690401 -15.857864376269049,-14.142135623730958 -19.393398282201787,-10.60660171779822 " fill="#97aecf" stroke="#97aecf" stroke-linecap="round" stroke-linejoin="round" transform="scale(1,1)"></polygon><polygon id="polygon211" points="10.606601717798206,4.393398282201782 14.142135623730944,0.8578643762690437 14.142135623730947,-14.142135623730958 10.606601717798211,-10.606601717798219 " fill="#97aecf" stroke="#97aecf" stroke-linecap="round" stroke-linejoin="round" transform="scale(1,1)"></polygon><polygon id="polygon209" points="-4.393398282201797,19.39339828220178 -0.8578643762690605,15.857864376269042 14.14213562373094,15.857864376269045 10.606601717798203,19.393398282201783 " fill="#97aecf" stroke="#97aecf" stroke-linecap="round" stroke-linejoin="round" transform="scale(1,1)"></polygon><polygon id="polygon184" points="85.60660171779821,64.39339828220179 89.14213562373095,60.85786437626905 104.14213562373095,60.85786437626905 100.60660171779821,64.39339828220179 " fill="#97aecf" stroke="#97aecf" stroke-linecap="round" stroke-linejoin="round" transform="scale(1,1)"></polygon><polygon id="polygon175" points="25.606601717798213,79.39339828220179 29.14213562373095,75.85786437626905 44.14213562373096,75.85786437626905 40.60660171779822,79.39339828220179 " fill="#97aecf" stroke="#97aecf" stroke-linecap="round" stroke-linejoin="round" transform="scale(1,1)"></polygon></g></g><path id="path2" d="M 14.142135623730947 -14.142135623730955L 14.142135623730947 0.8578643762690472L 14.142135623730947 15.857864376269049L 14.142135623730951 30.85786437626905L 14.142135623730951 45.85786437626905L 14.142135623730951 60.85786437626905L 14.142135623730951 75.85786437626905L 29.14213562373095 75.85786437626905L 44.14213562373096 75.85786437626905L 44.14213562373096 60.85786437626905L 29.142135623730958 60.85786437626905L 14.142135623730955 60.85786437626905L 29.142135623730958 60.85786437626905L 44.14213562373096 60.85786437626905L 59.14213562373096 60.85786437626905L 74.14213562373095 60.85786437626905L 89.14213562373095 60.85786437626905L 104.14213562373095 60.85786437626905L 104.14213562373095 45.85786437626905L 104.14213562373095 30.85786437626905L 89.14213562373095 30.85786437626905L 89.14213562373095 45.85786437626905L 89.14213562373095 60.85786437626905L 89.14213562373095 45.85786437626905L 89.14213562373095 30.85786437626905L 89.14213562373095 15.857864376269049L 89.14213562373095 0.8578643762690472L 89.14213562373095 -14.142135623730955L 89.14213562373095 -29.14213562373095L 74.14213562373095 -29.142135623730955L 59.14213562373095 -29.142135623730955L 59.14213562373095 -14.142135623730958L 74.14213562373095 -14.142135623730955L 89.14213562373095 -14.142135623730951L 74.14213562373095 -14.142135623730951L 59.14213562373095 -14.142135623730955L 44.14213562373095 -14.142135623730955L 29.14213562373095 -14.142135623730958L 14.142135623730947 -14.142135623730958L -0.8578643762690534 -14.142135623730962L -0.857864376269057 0.8578643762690401L -0.8578643762690605 15.857864376269042L 14.14213562373094 15.857864376269045L 14.142135623730944 0.8578643762690437L 14.142135623730947 -14.142135623730958L 29.14213562373095 -14.142135623730955L 29.142135623730944 0.8578643762690472L 14.142135623730944 0.8578643762690437L -0.8578643762690552 0.8578643762690437L -15.857864376269049 0.8578643762690401L -15.857864376269049 -14.142135623730958L -0.8578643762690534 -14.142135623730958L -0.8578643762690517 -29.142135623730958L -15.857864376269049 -29.142135623730958L -30.85786437626905 -29.14213562373096L -45.85786437626905 -29.14213562373096L -45.85786437626905 -44.142135623730965L -30.85786437626905 -44.142135623730965L -15.857864376269049 -44.142135623730965L -0.8578643762690534 -44.142135623730965L -0.8578643762690517 -29.14213562373096L -15.857864376269049 -29.14213562373096L -15.857864376269049 -14.142135623730962L -0.8578643762690534 -14.142135623730962L 14.142135623730947 -14.142135623730962L 29.14213562373095 -14.142135623730962L 29.14213562373095 0.8578643762690366L 14.142135623730947 0.8578643762690401L -0.8578643762690517 0.8578643762690401L -15.857864376269049 0.8578643762690437L -15.857864376269056 -14.142135623730958L -0.857864376269057 -14.142135623730962L -0.8578643762690605 -29.142135623730958L -15.857864376269056 -29.142135623730958L -30.857864376269056 -29.142135623730955L -45.857864376269056 -29.142135623730955L -45.857864376269056 -44.14213562373095L -30.857864376269056 -44.14213562373096L -15.857864376269056 -44.14213562373096L -0.8578643762690605 -44.142135623730965L -0.8578643762690552 -29.14213562373096L -15.857864376269049 -29.142135623730958L -15.857864376269049 -14.142135623730958L -0.8578643762690499 -14.142135623730962L 14.142135623730951 -14.142135623730965" stroke="black" fill="none" stroke-linecap="round" stroke-linejoin="round" transform="scale(1,1)"></path></svg>
