<?xml version="1.0" encoding="UTF-8" standalone="no"?>
<!-- Generator: Adobe Illustrator 24.0.1, SVG Export Plug-In . SVG Version: 6.00 Build 0)  -->

<svg
   version="1.1"
   id="Layer_1"
   x="0px"
   y="0px"
   width="1000px"
   height="1000px"
   viewBox="0 0 1000 1000"
   style="enable-background:new 0 0 1000 1000;"
   xml:space="preserve"
   sodipodi:docname="Patrick_initEdit.svg"
   inkscape:version="1.2.1 (9c6d41e, 2022-07-14)"
   xmlns:inkscape="http://www.inkscape.org/namespaces/inkscape"
   xmlns:sodipodi="http://sodipodi.sourceforge.net/DTD/sodipodi-0.dtd"
   xmlns="http://www.w3.org/2000/svg"
   xmlns:svg="http://www.w3.org/2000/svg"><defs
   id="defs993" /><sodipodi:namedview
   id="namedview991"
   pagecolor="#ffffff"
   bordercolor="#000000"
   borderopacity="0.25"
   inkscape:showpageshadow="2"
   inkscape:pageopacity="0.0"
   inkscape:pagecheckerboard="0"
   inkscape:deskcolor="#d1d1d1"
   showgrid="false"
   inkscape:zoom="0.57558492"
   inkscape:cx="442.15891"
   inkscape:cy="443.02759"
   inkscape:window-width="1428"
   inkscape:window-height="1232"
   inkscape:window-x="1149"
   inkscape:window-y="25"
   inkscape:window-maximized="0"
   inkscape:current-layer="illustration" />
<g
   id="illustration"
   style="fill:#000000">
	
	
	
	
	
	
	
	
	
	
	
	
	
	
	
	
	
	
	
	
	
	
	
	
	
	
	
	
	
	
	
<path
   style="fill:#f4d7d7"
   d="m 450.64386,262.58825 c -3.49363,-1.85179 -9.13561,1.25587 -12.90322,0 -1.01378,-0.33793 -1.81331,-1.25802 -2.86739,-1.43369 -1.88558,-0.31427 -3.89672,0.52515 -5.73476,0 -1.65679,-0.47337 -2.75991,-2.0968 -4.30108,-2.86739 -1.88172,-0.94086 -5.10035,-0.74432 -7.16846,-1.43369 -2.53984,0.71384 -2.70123,-2.22745 -4.30107,-2.86738 -1.82949,-0.7318 -3.86546,-0.81059 -5.73477,-1.4337 -0.45337,-0.15112 1.77162,0.33793 1.43369,0 -1.68962,-1.68962 -3.52908,-3.38204 -5.73476,-4.30107 -5.45655,-2.27356 -11.40784,-3.14178 -17.20431,-4.30108 -12.39899,-2.47979 -24.91517,0.11141 -37.27598,-1.43369 -0.67063,-0.0838 -0.8292,-1.13144 -1.43369,-1.43369 -2.56467,-1.28233 -5.75691,0.35566 -8.60215,0 -1.49958,-0.18745 -2.81918,-1.13731 -4.30108,-1.43369 -4.21755,-0.84351 -8.61482,0.32988 -12.90322,0 -2.89838,-0.22295 -5.70526,-1.19228 -8.60215,-1.43369 -14.01755,-1.16813 -29.12623,0 -43.01076,0 -2.37521,0 -44.69785,-1.68653 -48.74552,0 -5.33026,2.22094 -10.21001,5.61149 -15.77061,7.16846 -9.01504,2.52421 -60.66862,5.20821 -63.08243,10.03584 -1.05441,2.10881 2.63911,8.37388 4.30107,10.03584 0.33793,0.33792 1.09577,-0.33792 1.43369,0 0.67585,0.67585 -0.67585,2.19154 0,2.86738 0.67585,0.67585 2.19154,-0.67584 2.86739,0 3.52188,0.51121 0.5954,3.04365 1.43369,4.30108 0.74979,1.12468 2.26288,1.65839 2.86738,2.86738 5.46354,10.92708 -8.94086,-8.39337 1.43369,7.16846 0.26509,0.39764 1.09577,-0.33792 1.4337,0 2.36547,2.36547 -0.33287,6.70717 0,10.03584 1.22363,12.23631 7.16845,23.3867 7.16845,35.8423 0,4.83387 -6.86653,3.69722 -8.60215,7.16846 -0.42744,0.85489 0.26258,1.94836 0,2.86738 -0.83034,2.90619 -1.80611,5.77211 -2.86738,8.60215 -4.29636,11.45695 2.17831,-7.224 -4.30108,5.73477 -0.16947,0.33894 -1.64044,6.9617 -1.43369,7.16846 0.75563,0.75562 2.11176,0.67807 2.86739,1.43369 0.33792,0.33792 -0.33793,1.09577 0,1.43369 0.67585,0.67585 2.19153,-0.67585 2.86738,0 2.15253,2.15253 3.91613,5.5423 7.16846,7.16846 3.09325,1.54662 32.50879,0 40.14337,0 12.42533,0 24.85066,0 37.27598,0 5.25687,0 10.59854,0.94038 15.77061,0 0.94038,-0.17098 -0.85489,-2.43994 0,-2.86738 3.9317,-1.96585 22.02262,0.52175 27.24015,0 9.16976,-0.91698 18.20176,-2.79468 27.24014,-4.30108 3.77116,-0.62853 7.65762,0.29322 11.46953,0 3.36929,-0.25918 6.67048,-1.12775 10.03585,-1.43369 2.37967,-0.21634 5.47883,1.68962 7.16845,0 0.33793,-0.33793 -0.33792,-1.09577 0,-1.43369 1.49735,-1.49735 6.86303,1.30434 8.60216,0 1.37846,-1.03385 1.64898,-3.08268 2.86738,-4.30108 0.71684,-0.71684 3.58423,0.71685 4.30107,0 0.33793,-0.33792 -0.45337,-1.28257 0,-1.43369 1.01563,-0.33854 17.20431,0.2506 17.20431,0 0,-0.43072 -10.03585,0.19687 -10.03585,1.43369 0,0.4779 0.9558,0 1.43369,0 1.4337,0 2.86739,0 4.30108,0 0.4779,0 -1.43369,-0.4779 -1.43369,0 0,0.9558 1.91159,0 2.86738,0 5.73477,0 11.46954,0 17.2043,0 1.6792,0 -8.29272,-0.51572 -8.60215,0 -0.28086,0.46811 -2.27738,9.50092 -1.43369,11.46954 0.94127,2.19628 3.00894,3.72478 4.30108,5.73476 2.86738,4.77897 5.73476,9.55795 8.60215,14.33692 0.95579,0.95579 2.11759,1.7427 2.86738,2.86738 1.65105,2.47657 0,9.91979 0,12.90323 0,9.39705 1.5325,20.91255 0,30.10753 -0.0786,0.47139 -1.21997,-0.42745 -1.43369,0 -0.43274,0.86547 0,8.25697 0,8.60215 0,7.22789 1.60624,25.11624 0,31.54122 -0.4779,1.43369 -0.9558,2.86738 -1.43369,4.30107 -0.4779,0 -1.09577,-0.33792 -1.4337,0 -1.39329,1.3933 -0.34069,4.09528 -1.43369,5.73477 -0.26509,0.39763 -0.95579,0 -1.43369,0 -1.43369,2.38948 -3.20338,4.60717 -4.30107,7.16846 -0.37651,0.87851 0.42744,2.01249 0,2.86738 -0.21373,0.42744 -1.21997,-0.42744 -1.4337,0 -1.90644,3.81289 -1.43369,17.07953 -1.43369,21.50538 0,0.47789 -0.21372,-1.86114 0,-1.4337 2.28643,4.57287 -0.56863,10.33228 1.43369,14.33692 0.21373,0.42745 1.21997,-0.42744 1.4337,0 0.42744,0.85489 -0.15714,1.9246 0,2.86739 1.14388,6.86331 2.59864,10.17021 2.86738,10.03584 1.3517,-0.67585 0.5954,-3.04365 1.43369,-4.30108 0.26509,-0.39763 1.09577,-0.33792 1.43369,0 0.33793,0.33793 -0.42744,1.21997 0,1.43369 8.03292,4.01647 -4.64622,-10.80578 7.16846,5.73477 3.11944,4.36722 6.63907,10.4549 10.03584,14.33692 6.61497,7.55996 4.98046,1.40158 10.03585,5.73477 2.56571,2.19918 4.62531,4.94321 7.16846,7.16845 2.09712,1.83499 5.19803,2.33066 7.16845,4.30108 0.33793,0.33792 -0.45337,1.28257 0,1.43369 1.36012,0.45337 2.87195,-0.11433 4.30108,0 10.52347,0.84188 21.01687,2.03652 31.54122,2.86739 8.55829,0.67565 21.82557,0.0457 31.54122,1.43369 7.65439,1.09348 12.01114,2.3636 20.07168,2.86738 22.73038,1.42065 46.09467,0 68.81721,0 4.80093,0 38.4,1.58853 41.57706,0 1.74991,-0.87496 5.02455,-8.97053 5.73476,-10.03584 1.12468,-1.68702 3.39433,-2.48758 4.30108,-4.30108 0.21372,-0.42744 -0.33793,-1.09576 0,-1.43369 0.33792,-0.33792 1.09577,0.33793 1.43369,0 1.0968,-1.0968 0.84421,-5.40001 1.43369,-7.16846 1.64906,-4.94716 3.39247,-3.67558 4.30108,-10.03584 0.5503,-3.8521 -1.24286,-9.17464 0,-12.90323 0.21372,-0.64116 1.32258,-0.76703 1.43369,-1.43369 1.54063,-9.24376 0,-20.76242 0,-30.10752 0,-8.84845 0.27746,-17.25069 -1.43369,-25.80646 -0.64333,-3.21661 0.64332,-6.81922 0,-10.03584 1.22388,-3.64136 -2.13433,-5.66991 -2.86739,-8.60215 -0.23181,-0.92726 0,-1.91159 0,-2.86738 -0.47789,-1.91159 -0.81059,-3.86546 -1.43369,-5.73477 -0.67585,-2.02755 -2.19153,-3.70722 -2.86738,-5.73477 -0.30225,-0.90674 0.42744,-2.01249 0,-2.86738 -0.6045,-1.20899 -2.43994,-1.58505 -2.86738,-2.86738 -0.77304,-2.31911 -0.36212,-6.45901 -1.4337,-8.60215 -0.60449,-1.209 -2.05636,-1.78603 -2.86738,-2.86739 -1.9235,-2.56466 -3.03824,-5.65552 -4.30108,-8.60215 -0.77618,-1.8111 -0.0404,-4.34147 -1.43369,-5.73477 -0.33792,-0.33792 -1.28256,0.45338 -1.43369,0 -1.19474,-3.58422 0.7965,-3.98247 0,-7.16845 -0.25918,-1.03671 -1.17451,-1.83068 -1.43369,-2.86739 -0.23182,-0.92725 0.42744,-2.01249 0,-2.86738 -0.21372,-0.42745 -1.28257,0.45337 -1.43369,0 -1.43983,-4.31949 0.0486,-18.54084 -1.43369,-21.50538 -1.4755,-2.95098 -2.67255,-7.75298 -1.4337,-11.46953 0.15113,-0.45337 0.97007,0.11591 1.4337,0 1.46612,-0.36653 2.83495,-1.06716 4.30107,-1.43369 5.85058,-1.46265 12.71529,1.18454 18.63799,0 5.70097,-1.1402 11.53932,-1.56008 17.2043,-2.86739 5.0153,-1.15737 9.38785,-4.32074 14.33692,-5.73476 6.27613,-1.79318 26.07313,0 31.54122,0 15.29271,0 30.58543,0 45.87814,0 5.04015,0 23.46365,-1.66097 30.10752,0 7.26069,1.81517 15.37893,2.36337 22.93907,2.86738 28.45488,1.89699 -2.66473,-1.43369 25.80645,-1.43369 0.67585,0 0.8292,1.13144 1.4337,1.43369 2.30185,1.15093 4.62991,2.44429 7.16845,2.86738 3.29977,0.54996 6.69057,0 10.03585,0 3.82317,0 7.64635,0 11.46953,0 0.4779,0 1.21997,0.42745 1.43369,0 1.56352,-3.12703 0,-15.54529 0,-20.07168 0,-3.13844 0.29407,-25.51238 0,-25.80645 -0.33792,-0.33793 -1.09576,0.33792 -1.43369,0 -1.01377,-1.01378 0.28117,-2.89523 0,-4.30108 -0.59276,-2.96379 -2.43994,-5.61004 -2.86738,-8.60215 -0.91695,-6.41864 -0.3616,-12.37352 -2.86739,-18.63799 -0.251,-0.62751 -0.95579,-0.9558 -1.43369,-1.43369 -0.4779,-1.91159 -1.10975,-3.79116 -1.43369,-5.73477 -0.2357,-1.41418 0.64117,-3.01874 0,-4.30108 -1.04384,-2.08768 -0.81795,-3.06959 -1.43369,-4.30107 -0.4779,-0.9558 -2.65781,-0.38583 -2.86739,-1.43369 -0.9419,-4.70954 -0.0213,-9.7465 -1.43369,-14.33692 -0.59627,-1.93789 -3.08454,-2.67904 -4.30107,-4.30108 -1.09851,-1.46468 -1.83179,-5.61505 -2.86739,-7.16845 -0.26509,-0.39764 -1.21997,0.42744 -1.43369,0 -1.36771,-2.73542 1.64297,-2.76275 -1.43369,-4.30108 -1.84599,-0.923 -1.46848,0.96739 -2.86738,1.43369 -3.1137,1.0379 -2.93185,-0.73296 -5.73477,-1.43369 -3.54332,-0.88583 -7.84222,0.45342 -11.46953,0 -4.83598,-0.6045 -9.52962,-2.06617 -14.33692,-2.86738 -9.7646,-1.62744 -20.34292,1.62743 -30.10753,0 -0.66665,-0.11111 -0.79252,-1.21997 -1.43369,-1.43369 -4.9871,-1.66237 -10.58526,0.86422 -15.77061,0 -4.47204,-0.74535 -8.44715,-3.46557 -12.90323,-4.30108 -4.2274,-0.79264 -8.82286,1.36012 -12.90322,0 -0.64117,-0.21372 -0.76704,-1.32258 -1.43369,-1.43369 -2.35698,-0.39283 -4.79743,0.29638 -7.16846,0 -47.1155,-5.88944 18.91159,-0.64571 -34.4086,-2.86739 -5.27398,-0.21974 -10.55345,-0.63105 -15.77061,-1.43369 -0.76038,-0.11698 -2.93222,-2.11812 -4.30108,-1.43369 -2.95785,1.47893 -9.59704,5.71208 -11.46953,7.16846 -2.66742,2.07466 -4.14597,5.65722 -7.16846,7.16846 -5.00311,2.50155 -10.29695,4.58242 -15.77061,5.73477 -4.67646,0.98451 -10.06247,-2.13723 -14.33692,0 -2.37616,1.18808 -2.6762,4.10989 -4.30107,5.73476 -0.33793,0.33793 -1.0239,-0.24587 -1.43369,0 -2.04897,1.22938 -3.61349,3.20116 -5.73477,4.30108 -10.81644,5.60852 -21.69435,11.1663 -32.97491,15.77061 -12.17369,4.96885 -24.35251,10.48007 -37.27599,12.90322 -10.33366,1.93757 -21.05076,0.69937 -31.54122,0 -21.26553,-1.4177 -11.98861,-2.3483 -10.03584,-4.30107 0.75562,-0.75562 0.67807,-2.11176 1.43369,-2.86739 0.64615,-0.64614 8.60215,-0.65215 8.60215,1.4337"
   id="path1442" /><path
   style="fill:#999999"
   id="path1493"
   d="m 389.55665,578.47507 c -1.71257,9.6477 -1.72766,19.5196 -2.0433,29.28909 -0.007,7.34534 -0.78054,14.74851 -0.17924,22.09056 0.54164,6.61358 1.37616,9.76838 2.68999,16.44491 2.69924,13.34024 6.74816,26.34715 10.32969,39.4622 2.61613,9.5799 3.24294,12.40614 5.64349,22.17145 4.01861,17.47932 8.29696,34.89663 13.18412,52.15346 3.54206,10.83398 2.56695,22.2185 2.10301,33.41449 -0.86439,10.4481 -0.52976,20.91113 -0.25643,31.37299 0.21091,7.61815 0.36497,15.23696 0.38895,22.85804 -0.078,4.18595 0.0786,8.52142 -0.88909,12.63385 -0.87364,3.7126 -1.77838,5.33231 -3.32503,8.91711 -2.05576,5.48317 -6.8834,12.66211 -4.91722,18.75308 15.16586,9.64867 10.13928,8.75371 21.2786,7.22948 4.06293,-0.43303 8.15571,-0.4763 12.23763,-0.53155 4.35527,0.40642 7.79681,-2.15329 11.53072,-3.88271 3.2358,-1.05293 6.38489,-0.19624 9.60475,0.36109 3.21374,0.44782 6.49778,0.89531 9.68093,0.15805 3.83396,-1.54251 4.61464,-5.44184 5.11633,-9.13095 0.0643,-4.65602 -0.5465,-9.28704 -0.86389,-13.92663 -0.46579,-6.81591 -0.22557,-13.65287 -0.5404,-20.47217 -0.42526,-5.2282 -0.87373,-10.45006 -1.08541,-15.69205 -0.49196,-8.02878 0.68876,-16.01428 2.01936,-23.90692 0.7272,-4.90802 1.66066,-9.75625 2.7528,-14.59263 2.09228,-8.83533 3.14614,-17.87625 4.86571,-26.78881 1.62315,-8.39785 4.13168,-16.59877 5.894,-24.95898 1.03454,-5.2601 1.3417,-10.62694 1.52393,-15.97386 0.0232,-4.23184 0.0559,-8.44055 0.37653,-12.66181 0.65062,-5.32475 2.01209,-10.51848 2.93199,-15.79713 0.87127,-4.78496 0.888,-9.65384 0.96121,-14.49909 0.15146,-5.69844 2.13557,-11.04517 4.24182,-16.26585 1.3903,-2.89392 1.60108,-6.86119 4.47481,-8.76543 0.9725,0.15922 0.53266,-0.0489 1.29344,0.67686 -4.02451,-2.249 -8.00912,-4.57095 -12.07354,-6.74701 -0.32557,-0.17431 0.5875,0.45433 0.83392,0.7294 0.6616,0.73851 0.80362,1.21653 1.2218,2.10789 1.17822,3.51189 1.02835,7.28853 1.3139,10.94073 0.84473,7.21384 2.85357,14.25317 5.10325,21.14286 2.15599,5.50067 3.90705,11.14041 5.32423,16.87285 1.79426,8.23367 2.14709,16.65451 2.19445,25.04957 -0.28922,14.25591 -1.8588,28.44531 -3.21037,42.62921 -0.57793,7.28376 -1.08985,14.60029 -0.80094,21.90753 0.43511,4.77914 1.05993,9.57791 2.63859,14.13593 0.81411,2.35056 2.56283,6.14228 3.52921,8.31883 3.42552,7.72121 6.99315,15.38235 10.09163,23.24262 2.40729,6.1828 3.84014,12.68929 5.1343,19.1809 0.84459,3.78747 0.91436,7.7766 1.96706,11.52079 0.8189,2.91265 1.57391,3.89908 3.08692,6.7707 4.70438,7.22786 8.56413,15.51786 15.4686,20.96321 1.88788,0.88791 11.88618,10.34782 17.7388,7.22029 1.4614,-0.78094 1.77706,-1.55955 3.51057,-2.31907 3.27036,-1.09556 6.79296,-1.28195 10.00186,-2.64716 2.63062,-1.11918 4.54931,-2.60328 6.92681,-4.20552 7.638,-5.00951 13.47274,-11.95285 18.07811,-19.75092 3.88479,-8.18476 4.32714,-17.40258 4.91308,-26.30161 0.34838,-8.49965 -1.5041,-16.8384 -2.38379,-25.24138 -0.74884,-13.29418 -0.61974,-26.62817 -0.60557,-39.93955 0.2004,-11.72606 1.04583,-23.42659 1.46073,-35.14465 0.22622,-8.38918 0.42425,-16.78448 0.1249,-25.17306 0.0647,-8.66354 -1.99793,-16.99175 -4.19595,-25.2929 -2.04197,-7.32031 -4.07786,-14.64158 -6.12849,-21.96043 -1.66046,-6.97931 -3.71604,-13.83621 -6.18137,-20.57065 -2.31925,-4.83402 -4.43426,-9.76562 -6.75545,-14.59789 -2.70655,-6.45572 -5.76281,-12.73692 -8.79534,-19.0441 -2.31192,-4.46414 -4.43242,-9.0206 -6.19494,-13.72807 0,0 -13.37797,-6.25792 -13.37797,-6.25792 v 0 c 1.57765,4.82226 3.77591,9.40734 6.16619,13.88323 2.93088,6.33692 6.24857,12.48563 8.71765,19.03204 2.37726,4.76957 4.28318,9.76699 6.81558,14.46708 2.56084,6.70922 4.75378,13.52897 6.38884,20.52874 2.02785,7.30364 3.92874,14.6454 6.06322,21.91399 2.24111,8.21729 4.49888,16.41758 4.41264,25.02954 0.31058,8.35621 0.0607,16.72046 -0.0874,25.07899 -0.34891,11.79534 -0.88164,23.58503 -1.08628,35.38443 -0.0592,13.28214 -0.38573,26.57477 0.10159,39.85144 0.79596,8.35198 2.80925,16.60502 2.51733,25.04873 -0.44711,8.68677 -0.85848,17.67997 -4.63876,25.66959 -4.38283,7.69827 -10.11749,14.40059 -17.64869,19.20543 -2.62504,1.63793 -4.0093,2.70278 -6.81762,3.78188 -3.33342,1.28087 -6.99039,1.35897 -10.27052,2.76282 -0.77777,0.42334 -2.55311,1.79501 -3.36472,2.0522 -4.61621,1.46284 -14.88562,-7.8343 8.42496,6.70402 -7.52794,-4.55746 -11.21977,-13.33859 -15.93248,-20.39885 -1.05848,-1.95334 -2.4064,-4.1492 -3.10555,-6.3212 -1.19252,-3.70475 -1.17402,-7.74045 -2.01244,-11.52003 -1.28523,-6.56562 -2.7179,-13.16346 -5.05857,-19.44 -3.11949,-7.90944 -6.75954,-15.5847 -10.20262,-23.35668 -0.18567,-0.42583 -3.18093,-7.25727 -3.48886,-8.09579 -1.62988,-4.4383 -2.29992,-9.11801 -2.77257,-13.79673 -0.31816,-7.27572 0.0987,-14.55989 0.56564,-21.82219 1.02498,-14.26039 2.3798,-28.49753 3.16638,-42.77363 0.19766,-8.46751 -0.0783,-16.91872 -1.80522,-25.24548 -1.27709,-5.79101 -2.96222,-11.49158 -5.22563,-16.97972 -2.32883,-6.75849 -4.42722,-13.67202 -5.23907,-20.79456 -0.24661,-3.76081 -0.0527,-7.59362 -0.97213,-11.27579 -2.18358,-6.67004 -10.62654,-14.04118 -17.5656,-11.04434 -2.77152,2.51555 -3.47643,6.12306 -4.72653,9.51921 -2.10066,5.38925 -4.2394,10.90058 -4.48935,16.74505 -0.0603,4.77237 -0.13613,9.56211 -0.87513,14.28823 -0.86525,5.33301 -2.25416,10.55836 -2.96675,15.91772 -0.39017,4.23389 -0.58552,8.45206 -0.47759,12.7062 -0.0958,5.28526 -0.32081,10.58827 -1.29305,15.79694 -1.705,8.40107 -3.96537,16.68979 -5.67764,25.09261 -1.75535,8.84704 -2.8468,17.8401 -5.15206,26.56971 -1.20654,4.87049 -1.97353,9.79032 -2.65421,14.76162 -1.2806,7.9709 -2.50468,16.01069 -2.26985,24.10986 0.17557,5.26563 0.57221,10.5081 1.12853,15.74762 0.46691,6.80123 0.16174,13.62524 0.44608,20.43563 0.27052,4.55784 0.87683,9.09114 0.96378,13.65801 -0.36509,3.05271 -0.70749,6.55463 -4.15054,7.5005 -3.14358,0.34499 -6.2985,-0.0817 -9.40761,-0.59074 -3.4247,-0.57858 -6.77898,-0.97617 -10.09867,0.41717 -3.59058,1.77712 -6.93467,3.80478 -11.14305,3.36901 -4.13542,0.072 -8.28449,0.15633 -12.39491,0.64697 -1.49993,0.21658 -3.01892,0.51727 -4.53312,0.61271 -5.23631,0.33002 -12.72894,-6.89541 9.13313,6.89533 -0.2819,-0.3067 -0.70217,-0.52903 -0.8457,-0.92009 -1.4475,-3.94384 3.3657,-13.28739 4.78397,-16.80977 1.5929,-3.51254 2.67916,-5.48699 3.66001,-9.15631 1.11134,-4.15747 0.97987,-8.59237 1.02386,-12.84943 -0.10239,-7.65183 -0.15266,-15.30592 -0.50283,-22.95181 -0.35758,-10.45596 -0.67554,-20.91861 0.0348,-31.3698 0.0793,-1.93182 0.46818,-11.2632 0.52225,-13.16726 0.0892,-3.14238 0.23327,-7.89771 -0.14084,-11.10328 -0.3666,-3.14123 -1.38749,-6.49573 -2.20062,-9.52991 -5.23672,-17.28447 -9.84648,-34.74102 -13.79223,-52.36987 -2.27118,-9.46706 -3.01601,-12.87581 -5.52694,-22.17236 -3.52597,-13.05467 -7.5497,-25.99427 -10.20215,-39.27032 -1.26259,-6.63305 -2.03386,-9.54312 -2.51192,-16.08809 -0.53493,-7.32348 0.23359,-14.70767 0.1127,-22.03585 0.29234,-9.60135 0.35959,-19.33556 2.3603,-28.76699 0,0 -13.16423,-7.11894 -13.16423,-7.11894 z" /><ellipse
   style="fill:#000000"
   id="path1654"
   cx="500.3606"
   cy="173.73631"
   rx="78.1362"
   ry="81.003586" /><ellipse
   style="fill:#ffffff"
   id="path1656"
   cx="463.19409"
   cy="151.45427"
   rx="8.6021509"
   ry="9.3189964" /><ellipse
   style="fill:#ffffff"
   id="path1710"
   cx="527.71027"
   cy="154.32164"
   rx="11.469534"
   ry="9.3189964" /><rect
   style="fill:#000000"
   id="rect1816"
   width="60.215054"
   height="43.010754"
   x="471.99042"
   y="249.52325" /></g>
<g
   id="skeleton_1_"
   sodipodi:insensitive="true"
   style="opacity:0.25">
	<circle
   id="rightShoulder"
   cx="392.79999"
   cy="294.29999"
   r="8.1999998" />
	<circle
   id="rightElbow"
   cx="289.29999"
   cy="294.39999"
   r="8.1999998" />
	
		<circle
   id="rightWrist"
   transform="matrix(0.9951,-0.09853767,0.09853767,0.9951,-29.0274,13.8698)"
   cx="125.9"
   cy="300.79999"
   r="8.1999998" />
	<circle
   id="rightHip"
   cx="443.10001"
   cy="510.10001"
   r="8.1999998" />
	<circle
   id="rightKnee"
   cx="449.5"
   cy="670.29999"
   r="8.1999998" />
	<circle
   id="rightAnkle"
   cx="449.5"
   cy="878.29999"
   r="8.1999998" />
	<circle
   id="leftShoulder"
   cx="605.70001"
   cy="294.29999"
   r="8.1999998" />
	<circle
   id="leftElbow"
   cx="710.09998"
   cy="294"
   r="8.1999998" />
	<circle
   id="leftWrist"
   cx="873.5"
   cy="300.29999"
   r="8.1999998" />
	<circle
   id="leftHip"
   cx="559.5"
   cy="509.29999"
   r="8.1999998" />
	<circle
   id="leftKnee"
   cx="559.5"
   cy="670.29999"
   r="8.1999998" />
	<circle
   id="leftAnkle"
   cx="559.5"
   cy="878.29999"
   r="8.1999998" />
	<polygon
   style="fill:none;stroke:#000000;stroke-miterlimit:10"
   points="443,510.4 559.4,509.6 605.6,294.6 392.7,294.6 "
   id="polygon886" />
	<polyline
   style="fill:none;stroke:#000000;stroke-miterlimit:10"
   points="391.7,294.6 289,294.6 125.7,300.9  "
   id="polyline888" />
	<polyline
   style="fill:none;stroke:#000000;stroke-miterlimit:10"
   points="607.1,294.2 710.3,294.2 873.6,300.6  "
   id="polyline890" />
	<polyline
   style="fill:none;stroke:#000000;stroke-miterlimit:10"
   points="443,510.4 449.4,670.6 449.4,878.6  "
   id="polyline892" />
	<polyline
   style="fill:none;stroke:#000000;stroke-miterlimit:10"
   points="559.4,509.6 559.4,670.6 559.4,878.6  "
   id="polyline894" />
	<circle
   id="rightEye0"
   cx="468.60001"
   cy="160.2"
   r="0.80000001" />
	<circle
   id="rightBrow1"
   cx="466.39999"
   cy="148.3"
   r="0.80000001" />
	<circle
   id="rightBrow4"
   cx="489.70001"
   cy="151.3"
   r="0.80000001" />
	<circle
   id="nose1"
   cx="497.60001"
   cy="161.2"
   r="0.80000001" />
	<circle
   id="rightBrow3"
   cx="479.89999"
   cy="147.3"
   r="0.80000001" />
	<circle
   id="rightEye1"
   cx="473.79999"
   cy="156.5"
   r="0.80000001" />
	<circle
   id="rightBrow0"
   cx="462.39999"
   cy="152"
   r="0.80000001" />
	<circle
   id="rightBrow2"
   cx="472.60001"
   cy="147.3"
   r="0.80000001" />
	<circle
   id="rightEye5"
   cx="473.79999"
   cy="162.5"
   r="0.80000001" />
	<circle
   id="rightEye2"
   cx="480.10001"
   cy="156.5"
   r="0.80000001" />
	<circle
   id="rightEye3"
   cx="485.29999"
   cy="160.7"
   r="0.80000001" />
	<circle
   id="nose0"
   cx="497.60001"
   cy="155.39999"
   r="0.80000001" />
	<circle
   id="nose3"
   cx="497.60001"
   cy="173.8"
   r="0.80000001" />
	<circle
   id="rightNose0"
   cx="486.89999"
   cy="178.3"
   r="0.80000001" />
	<circle
   id="rightMouthCorner"
   cx="480.89999"
   cy="200.39999"
   r="0.80000001" />
	<circle
   id="rightNose1"
   cx="492.10001"
   cy="178.3"
   r="0.80000001" />
	<circle
   id="rightUpperLipTop0"
   cx="487.79999"
   cy="197"
   r="0.80000001" />
	<circle
   id="nose2"
   cx="497.60001"
   cy="166.7"
   r="0.80000001" />
	<circle
   id="nose4"
   cx="497.60001"
   cy="179.10001"
   r="0.80000001" />
	<circle
   id="upperLipTopMid"
   cx="498.39999"
   cy="196.8"
   r="0.80000001" />
	<circle
   id="rightUpperLipTop1"
   cx="494.29999"
   cy="195.89999"
   r="0.80000001" />
	<path
   id="rightMiddleLip"
   d="m 484.5,199.9 c 0.4,0 0.8,0.4 0.8,0.8 0,0.4 -0.4,0.8 -0.8,0.8 -0.4,0 -0.8,-0.4 -0.8,-0.8 0,-0.4 0.4,-0.8 0.8,-0.8 z" />
	<circle
   id="lowerLipBottomMid"
   cx="498.39999"
   cy="210"
   r="0.80000001" />
	<circle
   id="upperLipBottomMid"
   cx="498.39999"
   cy="200.39999"
   r="0.80000001" />
	<circle
   id="lowerLipTopMid"
   cx="498.39999"
   cy="203.5"
   r="0.80000001" />
	<circle
   id="rightUpperLipBottom1"
   cx="494.5"
   cy="199.89999"
   r="0.80000001" />
	<circle
   id="rightLowerLipTop0"
   cx="494.5"
   cy="202.8"
   r="0.80000001" />
	<circle
   id="rightLowerLipBottom1"
   cx="494.29999"
   cy="209.5"
   r="0.80000001" />
	<circle
   id="rightLowerLipBottom0"
   cx="487.29999"
   cy="206.7"
   r="0.80000001" />
	<circle
   id="rightEye4"
   cx="480.10001"
   cy="161.7"
   r="0.80000001" />
	<circle
   id="jawMid"
   cx="498.39999"
   cy="235.8"
   r="0.80000001" />
	<circle
   id="rightJaw7"
   cx="483.39999"
   cy="232.60001"
   r="0.80000001" />
	<circle
   id="rightJaw6"
   cx="473.39999"
   cy="225.89999"
   r="0.80000001" />
	<circle
   id="rightJaw5"
   cx="461.79999"
   cy="213.39999"
   r="0.80000001" />
	<circle
   id="rightJaw4"
   cx="455"
   cy="193.39999"
   r="0.80000001" />
	<circle
   id="rightJaw3"
   cx="454.20001"
   cy="171.7"
   r="0.80000001" />
	<circle
   id="rightJaw2"
   cx="454.20001"
   cy="162.2"
   r="0.80000001" />
	<circle
   id="rightJaw1"
   cx="455"
   cy="150.5"
   r="0.80000001" />
	<circle
   id="rightJaw0"
   cx="457.5"
   cy="141.2"
   r="0.80000001" />
	<circle
   id="topMid"
   cx="498.60001"
   cy="115.1"
   r="0.80000001" />
	<circle
   id="leftTop0"
   cx="518.29999"
   cy="117.6"
   r="0.80000001" />
	<circle
   id="leftTop1"
   cx="530.90002"
   cy="127.1"
   r="0.80000001" />
	<circle
   id="leftEye0"
   cx="528.20001"
   cy="160.2"
   r="0.80000001" />
	<circle
   id="leftBrow1"
   cx="530.09998"
   cy="148.7"
   r="0.80000001" />
	<circle
   id="leftBrow4"
   cx="506.5"
   cy="150.8"
   r="0.80000001" />
	<circle
   id="leftBrow3"
   cx="516.5"
   cy="147.60001"
   r="0.80000001" />
	<circle
   id="leftEye1"
   cx="523"
   cy="156.5"
   r="0.80000001" />
	<circle
   id="leftBrow0"
   cx="534.09998"
   cy="151.60001"
   r="0.80000001" />
	<circle
   id="leftBrow2"
   cx="523.79999"
   cy="147.2"
   r="0.80000001" />
	<circle
   id="leftEye5"
   cx="523"
   cy="162.5"
   r="0.80000001" />
	<circle
   id="leftEye2"
   cx="516.70001"
   cy="156.5"
   r="0.80000001" />
	<circle
   id="leftEye3"
   cx="511.5"
   cy="160.7"
   r="0.80000001" />
	<circle
   id="leftNose0"
   cx="508"
   cy="178.3"
   r="0.80000001" />
	<circle
   id="leftMouthCorner"
   cx="515.90002"
   cy="200.39999"
   r="0.80000001" />
	<circle
   id="leftNose1"
   cx="503.20001"
   cy="178.3"
   r="0.80000001" />
	<circle
   id="leftUpperLipTop0"
   cx="509"
   cy="197"
   r="0.80000001" />
	<circle
   id="leftUpperLipTop1"
   cx="502.60001"
   cy="195.89999"
   r="0.80000001" />
	<path
   id="leftMiddleLip"
   d="m 512.3,199.9 c 0.4,0 0.8,0.4 0.8,0.8 0,0.4 -0.4,0.8 -0.8,0.8 -0.4,0 -0.8,-0.4 -0.8,-0.8 0,-0.4 0.4,-0.8 0.8,-0.8 z" />
	<circle
   id="leftUpperLipBottom1"
   cx="502.39999"
   cy="199.89999"
   r="0.80000001" />
	<circle
   id="leftLowerLipTop0"
   cx="502.39999"
   cy="202.8"
   r="0.80000001" />
	<circle
   id="leftLowerLipBottom1"
   cx="502.60001"
   cy="209.5"
   r="0.80000001" />
	<circle
   id="leftLowerLipBottom0"
   cx="509.5"
   cy="206.7"
   r="0.80000001" />
	<circle
   id="leftEye4"
   cx="516.70001"
   cy="161.7"
   r="0.80000001" />
	<circle
   id="leftJaw7"
   cx="513.20001"
   cy="233"
   r="0.80000001" />
	<circle
   id="leftJaw6"
   cx="523.20001"
   cy="226.3"
   r="0.80000001" />
	<circle
   id="leftJaw5"
   cx="534.79999"
   cy="213.7"
   r="0.80000001" />
	<circle
   id="leftJaw4"
   cx="541.59998"
   cy="193.7"
   r="0.80000001" />
	<circle
   id="leftJaw3"
   cx="542.40002"
   cy="172.10001"
   r="0.80000001" />
	<circle
   id="leftJaw2"
   cx="542.40002"
   cy="162.5"
   r="0.80000001" />
	<circle
   id="leftJaw1"
   cx="541.59998"
   cy="150.8"
   r="0.80000001" />
	<circle
   id="leftJaw0"
   cx="539.09998"
   cy="141.60001"
   r="0.80000001" />
	<polyline
   style="fill:none;stroke:#000000;stroke-miterlimit:10"
   points="498.4,115.1 478.6,117.6 466.1,127.1 457.5,141.2    455,150.5 454.2,162.2 454.2,171.7 455,193.4 461.8,213.4 473.4,225.9 483.4,232.6 498.4,235.8 513.2,233 523.2,226.3 534.8,213.7    541.6,193.7 542.4,172.1 542.4,162.5 541.6,150.8 539.1,141.6 530.9,127.1 518.3,117.6 498.4,115.1  "
   id="polyline967" />
	<polyline
   style="fill:none;stroke:#000000;stroke-miterlimit:10"
   points="462.4,152 466.4,148.3 472.6,147.3 479.9,147.3    489.7,151.3  "
   id="polyline969" />
	<polygon
   style="fill:none;stroke:#000000;stroke-miterlimit:10"
   points="473.8,156.5 480.1,156.5 485.3,160.7 480.1,161.7 473.8,162.5 468.6,160.2 "
   id="polygon971" />
	<polyline
   style="fill:none;stroke:#000000;stroke-miterlimit:10"
   points="486.9,178.3 492.1,178.3 497.6,179.1 497.6,173.8    497.6,166.7 497.6,161.2 497.6,155.4  "
   id="polyline973" />
	<polyline
   style="fill:none;stroke:#000000;stroke-miterlimit:10"
   points="533.9,151.6 529.9,148.7 523.6,147.2 516.3,147.6    506.3,150.8  "
   id="polyline975" />
	<polygon
   style="fill:none;stroke:#000000;stroke-miterlimit:10"
   points="522.7,156.5 516.4,156.5 511.3,160.7 516.4,161.7 522.7,162.5 528,160.2 "
   id="polygon977" />
	<polyline
   style="fill:none;stroke:#000000;stroke-miterlimit:10"
   points="508,178.3 503,178.3 497.6,179.1  "
   id="polyline979" />
	<polygon
   style="fill:none;stroke:#000000;stroke-miterlimit:10"
   points="487.8,197 494.3,195.9 498.4,196.8 502.6,195.9 509,197 515.9,200.4 509.5,206.7 502.4,209.5 498.4,210 494.3,209.5 487.3,206.7 480.9,200.4 "
   id="polygon981" />
	<polyline
   style="fill:none;stroke:#000000;stroke-miterlimit:10"
   points="480.9,200.4 484.5,200.7 494.5,199.9 498.4,200.4    502.4,199.9 512.3,200.7 515.9,200.4  "
   id="polyline983" />
	<polyline
   style="fill:none;stroke:#000000;stroke-miterlimit:10"
   points="480.9,200.4 484.5,200.7 494.5,202.8 498.4,203.6    502.4,202.8 512.3,200.7 515.9,200.4  "
   id="polyline985" />
	<circle
   id="rightTop0"
   cx="478.70001"
   cy="117.6"
   r="0.80000001" />
	<circle
   id="rightTop1"
   cx="466.10001"
   cy="127.1"
   r="0.80000001" />
</g>
</svg>
